<?xml version="1.0" encoding="UTF-8" standalone="no"?>
<svg
   version="1.0"
   width="251.000000pt"
   height="247.000000pt"
   viewBox="0 0 251.000000 247.000000"
   preserveAspectRatio="xMidYMid meet"
   id="svg27">
  <defs
     id="defs31" />
  <metadata
     id="metadata9">
Created by potrace 1.10, written by Peter Selinger 2001-2011
</metadata>
  <g
     transform="translate(0.000000,247.000000) scale(0.100000,-0.100000)"
     fill="#000000"
     stroke="none"
     id="g25"
     style="fill:#fdfeff;fill-opacity:1">
    <path
       d="M666 2064 c-189 -46 -323 -200 -333 -384 -4 -66 -2 -78 16 -97 27 -29 64 -38 103 -27 43 13 68 50 77 116 4 30 16 70 27 89 25 43 93 95 142 109 23 6 235 10 573 10 581 0 583 0 655 -55 54 -41 75 -80 84 -152 11 -85 39 -118 104 -118 53 0 81 22 97 75 9 30 7 50 -10 115 -27 97 -57 149 -124 213 -65 61 -119 89 -206 108 -96 20 -1119 19 -1205 -2z m1249 -43 c17 -8 33 -14 38 -13 4 1 7 -3 7 -8 0 -6 6 -10 14 -10 24 0 126 -101 150 -149 38 -75 59 -154 52 -193 -8 -44 -44 -66 -84 -52 -23 8 -29 20 -47 90 -27 104 -64 153 -149 193 l-62 30 -554 2 c-305 0 -564 -1 -576 -4 -115 -29 -197 -122 -218 -248 -8 -46 -33 -69 -70 -65 -65 8 -73 71 -23 196 18 47 46 95 53 92 3 -2 14 10 24 26 27 44 120 102 195 122 17 4 298 7 625 7 489 -2 600 -5 625 -16z"
       id="path11"
       style="fill:#fdfeff;fill-opacity:1" />
    <path
       d="M1085 1720 c-176 -32 -370 -115 -522 -224 -110 -79 -363 -321 -363 -347 0 -40 261 -288 410 -389 130 -88 305 -161 460 -191 36 -7 128 -12 205 -12 122 1 155 5 260 32 209 54 417 174 610 353 110 101 195 193 195 210 0 14 -74 86 -230 226 -170 152 -349 253 -555 312 -98 29 -127 32 -265 35 -85 2 -177 0 -205 -5z m330 -34 c45 -6 101 -19 116 -27 9 -4 28 -10 42 -13 33 -6 100 -29 107 -36 3 -4 27 -14 54 -25 44 -16 162 -80 176 -95 3 -3 25 -19 49 -35 25 -17 71 -54 103 -84 32 -29 58 -50 58 -46 0 3 18 -15 40 -40 22 -25 40 -43 40 -40 0 4 20 -15 45 -42 25 -26 45 -53 45 -59 0 -23 -194 -208 -316 -301 -44 -34 -104 -73 -154 -101 -25 -14 -61 -34 -80 -45 -19 -11 -57 -26 -85 -34 -27 -8 -59 -18 -70 -23 -53 -23 -172 -43 -285 -47 -161 -7 -268 11 -435 75 -53 20 -167 73 -175 82 -3 3 -25 18 -50 34 -129 82 -390 325 -390 362 0 18 81 106 171 186 74 66 99 86 149 123 82 61 109 77 175 110 33 17 63 34 66 38 3 5 8 8 10 7 2 -1 11 1 19 4 36 11 86 26 95 28 6 1 30 8 55 16 105 33 165 41 285 36 66 -3 129 -6 140 -8z"
       id="path13"
       style="fill:#fdfeff;fill-opacity:1" />
    <path
       d="M1124 1560 c-165 -22 -461 -178 -589 -311 -81 -83 -85 -88 -85 -106 0 -15 46 -85 61 -91 4 -2 36 -26 70 -53 35 -28 71 -56 79 -62 88 -69 235 -143 347 -176 88 -26 270 -44 353 -36 73 8 197 38 250 62 148 66 272 147 373 242 32 31 64 55 70 53 7 -2 9 0 5 3 -4 4 -1 17 7 29 24 33 18 52 -34 103 -55 54 -171 148 -171 138 0 -3 -10 4 -22 15 -29 27 -145 91 -218 120 -30 12 -64 26 -75 30 -35 15 -53 19 -164 40 -62 11 -167 11 -257 0z m246 -35 c113 -17 183 -40 299 -98 115 -58 209 -121 308 -207 l82 -71 -92 -85 c-177 -164 -360 -261 -555 -295 -94 -17 -300 -6 -390 20 -159 46 -333 150 -476 283 l-79 73 69 64 c137 126 367 259 514 296 54 14 139 28 210 34 8 0 58 -6 110 -14z"
       id="path15"
       style="fill:#fdfeff;fill-opacity:1" />
    <path
       d="M1144 1411 c-100 -46 -169 -158 -169 -276 1 -81 23 -132 81 -189 60 -58 117 -81 204 -81 88 0 144 23 205 83 139 137 102 369 -74 454 -64 31 -190 35 -247 9z m177 -12 c97 -31 140 -67 177 -146 20 -44 26 -72 24 -117 -1 -35 -6 -62 -14 -67 -7 -4 -9 -11 -6 -15 12 -12 -102 -134 -125 -134 -8 0 -28 -7 -43 -15 -35 -18 -92 -19 -148 -3 -43 12 -140 81 -129 92 3 3 1 6 -5 6 -42 0 -65 188 -29 242 10 15 19 33 21 40 3 23 77 89 120 108 47 21 108 25 157 9z"
       id="path17"
       style="fill:#fdfeff;fill-opacity:1" />
    <path
       d="M1204 1290 c-26 -10 -68 -48 -81 -75 -11 -19 -16 -65 -14 -112 3 -59 114 -126 178 -107 16 4 31 7 34 6 8 -1 45 34 71 66 10 12 15 22 12 22 -4 0 -1 6 5 14 7 9 10 28 6 48 -3 18 -6 38 -7 43 -1 19 -41 67 -72 86 -32 20 -95 24 -132 9z m130 -37 c57 -43 71 -111 35 -170 -72 -117 -254 -56 -236 80 13 94 127 145 201 90z"
       id="path19"
       style="fill:#fdfeff;fill-opacity:1" />
    <path
       d="M597 1205 c8 -25 77 -109 122 -149 19 -17 53 -48 75 -69 45 -42 128 -101 191 -135 48 -26 137 -64 141 -60 1 2 -35 23 -81 47 -137 72 -280 188 -402 326 -29 33 -50 51 -46 40z"
       id="path21"
       style="fill:#fdfeff;fill-opacity:1" />
    <path
       d="M355 705 c-72 -71 15 -320 142 -408 21 -14 65 -39 98 -54 l60 -28 603 -3 c653 -3 652 -3 747 53 109 63 205 223 208 347 2 56 0 62 -31 89 -24 22 -42 29 -73 29 -54 0 -85 -32 -94 -96 -14 -105 -52 -166 -128 -207 -42 -22 -46 -22 -581 -25 -581 -3 -599 -2 -676 50 -51 34 -90 98 -100 165 -7 45 -16 64 -40 86 -41 36 -100 38 -135 2z m99 -24 c19 -8 27 -21 36 -63 25 -119 99 -203 208 -234 50 -15 124 -17 597 -17 536 0 540 0 591 22 86 38 143 113 165 220 14 68 23 81 60 81 37 0 69 -32 69 -67 0 -41 -24 -124 -51 -178 -34 -67 -172 -188 -193 -168 -3 3 -6 2 -6 -4 0 -5 -8 -11 -17 -13 -10 -2 -297 -4 -638 -4 l-620 -1 -65 32 c-97 47 -170 129 -206 228 -20 57 -23 107 -9 142 15 35 33 41 79 24z"
       id="path23"
       style="fill:#fdfeff;fill-opacity:1" />
  </g>
</svg>
