<?xml version="1.0" encoding="UTF-8" standalone="no"?>
<svg
   id="svg"
   version="1.1"
   width="339.61197"
   height="297.49466"
   viewBox="0 0 339.61197 297.49467">
  <defs
     id="defs3994" />
  <g
     id="svgg"
     transform="translate(-32.14265,-62.353264)">
    <path
       id="path0"
       d="m 119.094,62.98 c -8.411,0.966 -10.896,1.462 -18.11,3.612 -7.906,2.356 -17.111,6.965 -22.509,11.269 -4.73,3.772 -10.962,9.895 -11.366,11.169 -0.128,0.403 -0.386,0.734 -0.574,0.734 -0.187,0 -0.443,0.323 -0.568,0.718 -0.125,0.395 -0.566,1.08 -0.979,1.524 -0.413,0.443 -1.304,1.759 -1.981,2.923 -0.677,1.165 -1.401,2.384 -1.608,2.709 -0.207,0.325 -0.552,1.033 -0.768,1.575 -0.216,0.541 -0.56,1.25 -0.763,1.574 -0.629,1.002 -2.388,5.046 -2.388,5.489 0,0.231 -0.354,1.081 -0.787,1.889 -0.433,0.808 -0.787,1.776 -0.787,2.15 0,0.375 -0.261,1.264 -0.579,1.975 -2.902,6.48 -3.823,21.185 -1.611,25.702 3.396,6.935 11.255,9.982 18.725,7.259 7.376,-2.688 10.994,-8.265 11.017,-16.984 0.028,-10.873 8.329,-23.307 20.088,-30.087 1.518,-0.876 7.147,-2.904 8.058,-2.904 0.315,0 1.421,-0.294 2.457,-0.653 1.735,-0.601 8.736,-0.647 88.471,-0.575 93.4,0.083 87.057,-0.055 92.547,2.021 1.082,0.41 2.448,0.859 3.035,0.998 0.586,0.14 1.272,0.503 1.524,0.806 0.252,0.304 0.666,0.552 0.919,0.552 1.966,0 11.522,7.732 14.111,11.418 4.647,6.614 5.362,8.548 5.824,15.748 0.372,5.803 1.523,11.438 2.579,12.629 0.303,0.342 0.551,0.792 0.551,1.001 0,0.586 3.168,3.464 4.892,4.444 2.796,1.589 8.582,2.543 11.058,1.823 1.146,-0.333 2.414,-0.606 2.817,-0.606 0.877,0 4.26,-2.221 5.938,-3.899 3.256,-3.257 5.685,-11.617 4.425,-15.235 -0.218,-0.628 -0.673,-2.559 -1.01,-4.291 -1.349,-6.939 -1.682,-8.377 -2.552,-11.024 -0.498,-1.516 -1.139,-3.105 -1.426,-3.532 -0.286,-0.428 -0.52,-1.075 -0.52,-1.439 0,-1.043 -4.831,-10.234 -6.636,-12.625 -0.897,-1.188 -1.632,-2.25 -1.632,-2.358 0,-0.68 -8.575,-9.568 -11.614,-12.037 -6.956,-5.655 -17.679,-11.159 -25.036,-12.851 -1.21,-0.279 -2.404,-0.632 -2.653,-0.786 -2.804,-1.733 -166.934,-3.392 -180.579,-1.825 m 71.26,55.172 c -3.681,0.174 -8.287,0.586 -10.236,0.916 -1.949,0.33 -4.695,0.773 -6.102,0.985 -6.909,1.042 -22.865,5.011 -27.953,6.955 -0.758,0.289 -2.044,0.641 -2.859,0.78 -0.814,0.14 -1.575,0.406 -1.69,0.592 -0.115,0.186 -0.954,0.534 -1.865,0.772 -1.593,0.417 -8.185,2.952 -12.287,4.725 -2.604,1.125 -15.005,7.29 -16.634,8.268 -0.703,0.423 -1.795,1.078 -2.425,1.457 -0.63,0.379 -2.18,1.286 -3.445,2.014 -2.783,1.604 -12.205,7.908 -16.275,10.889 -1.624,1.19 -3.396,2.463 -3.937,2.829 -0.542,0.366 -1.273,0.94 -1.625,1.276 -0.353,0.336 -1.132,0.965 -1.731,1.398 -2.371,1.712 -5.895,4.609 -9.155,7.528 -6.243,5.589 -7.729,6.93 -11.514,10.385 -18.938,17.292 -28.395,27.469 -28.478,30.647 -0.104,3.944 22.985,28.314 40.495,42.745 2.382,1.963 4.419,3.666 4.527,3.786 0.29,0.319 8.669,6.777 9.691,7.468 0.48,0.325 2.529,1.856 4.553,3.403 3.864,2.952 14.41,10.163 15.832,10.825 0.456,0.212 1.659,0.863 2.672,1.445 3.257,1.873 18.177,9.305 20.008,9.968 0.975,0.352 3.721,1.436 6.103,2.409 3.858,1.575 6.83,2.692 11.22,4.216 1.868,0.649 5.876,1.71 12.008,3.178 2.815,0.674 6.092,1.481 7.283,1.793 10.926,2.86 33.546,4.149 49.213,2.803 8.546,-0.734 11.011,-1.115 23.622,-3.656 3.129,-0.63 6.878,-1.591 8.465,-2.17 0.649,-0.237 2.155,-0.663 3.346,-0.946 1.191,-0.284 2.697,-0.7 3.347,-0.926 0.649,-0.225 3.041,-1.024 5.315,-1.775 3.839,-1.267 12.435,-4.639 15.157,-5.944 0.65,-0.312 3.484,-1.657 6.299,-2.99 2.815,-1.333 6.864,-3.424 8.997,-4.647 2.133,-1.222 4.83,-2.754 5.992,-3.403 1.163,-0.65 2.429,-1.405 2.815,-1.677 0.385,-0.273 2.915,-1.957 5.621,-3.743 3.995,-2.636 9.74,-6.766 17.126,-12.313 17.446,-13.101 46.369,-41.1 49.512,-47.93 1.691,-3.677 -1.363,-7.272 -23.495,-27.654 -2.581,-2.377 -4.975,-4.587 -5.321,-4.912 -0.345,-0.325 -1.865,-1.636 -3.378,-2.914 -1.513,-1.277 -3.991,-3.436 -5.507,-4.796 -9.284,-8.331 -14.843,-12.724 -23.425,-18.51 -1.84,-1.241 -4.012,-2.714 -4.825,-3.274 -1.634,-1.124 -1.836,-1.244 -9.615,-5.73 -8.499,-4.901 -18.632,-9.773 -27.855,-13.393 -1.5,-0.589 -3.006,-1.216 -3.346,-1.394 -0.929,-0.487 -5.946,-2.099 -11.445,-3.68 -1.841,-0.529 -4.853,-1.406 -6.693,-1.949 -1.841,-0.542 -4.233,-1.16 -5.315,-1.373 -1.083,-0.212 -3.12,-0.66 -4.528,-0.995 -5.502,-1.308 -8.208,-1.829 -11.614,-2.235 -1.949,-0.232 -4.173,-0.588 -4.943,-0.792 -3.582,-0.949 -17.756,-1.299 -29.703,-0.734 m 24.122,31.197 c 3.307,0.338 6.163,0.707 6.347,0.821 0.185,0.114 2.086,0.476 4.225,0.805 2.139,0.328 4.598,0.855 5.464,1.172 0.866,0.316 1.967,0.582 2.447,0.592 0.479,0.009 1.631,0.26 2.559,0.557 0.928,0.298 3.547,1.122 5.821,1.832 2.273,0.71 4.302,1.441 4.507,1.625 0.206,0.183 0.619,0.334 0.918,0.334 0.851,0 5.355,1.85 10.519,4.32 2.599,1.243 5.168,2.395 5.709,2.56 0.541,0.164 1.25,0.53 1.575,0.813 0.325,0.282 1.079,0.635 1.677,0.784 0.597,0.149 1.185,0.431 1.306,0.627 0.121,0.196 0.784,0.619 1.473,0.94 0.689,0.321 2.67,1.39 4.402,2.374 1.732,0.985 3.681,2.051 4.331,2.368 0.65,0.318 2.735,1.536 4.635,2.708 1.899,1.172 3.583,2.189 3.74,2.259 0.409,0.183 7.789,5.163 10.129,6.834 1.083,0.774 2.411,1.702 2.953,2.063 1.358,0.905 13.661,10.779 15.354,12.322 7.119,6.491 12.598,12.048 12.598,12.776 0,1.094 -9.224,10.172 -20.472,20.147 -0.974,0.864 -3.809,3.194 -6.299,5.177 -2.49,1.982 -4.957,3.973 -5.481,4.423 -0.525,0.45 -2.119,1.595 -3.544,2.545 -1.424,0.949 -3.906,2.624 -5.514,3.721 -4.221,2.877 -12.783,7.774 -18.926,10.825 -2.923,1.452 -5.587,2.777 -5.919,2.945 -0.641,0.325 -8.687,3.485 -11.994,4.711 -2.48,0.919 -11.572,3.602 -15.945,4.705 -10.595,2.673 -40.054,3.795 -50,1.904 -1.841,-0.35 -5.011,-0.83 -7.045,-1.067 -2.034,-0.237 -3.983,-0.579 -4.331,-0.758 -0.347,-0.18 -1.518,-0.455 -2.601,-0.612 -1.082,-0.156 -3.031,-0.603 -4.33,-0.994 -1.299,-0.39 -3.691,-1.099 -5.315,-1.574 -3.726,-1.091 -8.736,-2.807 -9.252,-3.169 -0.217,-0.151 -1.103,-0.499 -1.969,-0.772 -0.866,-0.273 -1.752,-0.629 -1.968,-0.79 -0.217,-0.162 -0.837,-0.426 -1.378,-0.586 -1.638,-0.484 -13.774,-6.571 -16.929,-8.491 -1.624,-0.989 -3.822,-2.317 -4.885,-2.953 -7.349,-4.398 -21.785,-14.687 -27.552,-19.638 -1.276,-1.095 -3.225,-2.767 -4.331,-3.715 -3.053,-2.618 -10.746,-9.827 -12.948,-12.133 -3.275,-3.431 -3.236,-3.287 -1.405,-5.276 4.163,-4.522 5.984,-6.334 9.799,-9.759 2.264,-2.032 4.914,-4.436 5.889,-5.342 1.781,-1.657 8.4,-6.966 10.236,-8.211 0.541,-0.367 1.959,-1.379 3.15,-2.249 3.944,-2.882 14.07,-9.501 16.141,-10.553 0.542,-0.275 1.693,-0.93 2.559,-1.455 0.866,-0.526 1.931,-1.117 2.366,-1.313 0.434,-0.197 1.763,-0.932 2.952,-1.634 2.305,-1.361 10.767,-5.653 13.875,-7.038 1.029,-0.458 2.623,-1.176 3.544,-1.597 1.555,-0.711 2.663,-1.139 6.2,-2.398 0.758,-0.269 2.106,-0.82 2.996,-1.223 0.89,-0.403 1.953,-0.734 2.362,-0.735 0.41,-0.001 1.22,-0.25 1.801,-0.553 0.581,-0.303 1.644,-0.671 2.362,-0.817 0.718,-0.146 2.369,-0.586 3.668,-0.976 6.282,-1.89 16.734,-3.869 23.015,-4.358 2.915,-0.227 5.395,-0.51 5.512,-0.63 0.368,-0.373 12.929,0.137 19.217,0.78 M 65.144,277.529 c -9.985,1.211 -14.753,10.826 -12.024,24.243 0.792,3.889 1.929,8.683 2.336,9.842 0.227,0.65 0.803,2.333 1.28,3.74 0.476,1.408 1.259,3.445 1.739,4.528 0.481,1.083 0.986,2.234 1.122,2.559 1.805,4.297 7.645,12.322 12.905,17.734 1.849,1.902 7.959,7.069 8.36,7.069 0.131,0 1.08,0.601 2.11,1.336 4.019,2.871 13.064,6.96 19.587,8.854 8.875,2.579 1.708,2.409 101.799,2.409 100.87,-0.001 91.328,0.245 101.548,-2.611 17.228,-4.815 32.693,-18.822 40.369,-36.563 0.281,-0.649 1.066,-2.864 1.743,-4.921 0.677,-2.057 1.399,-4.094 1.603,-4.528 0.751,-1.588 1.919,-5.964 2.154,-8.07 0.132,-1.191 0.517,-3.489 0.854,-5.107 2.845,-13.65 -9.204,-24.042 -22.334,-19.262 -6.128,2.23 -8.118,5.988 -9.648,18.219 -1.573,12.568 -8.852,23.358 -19.072,28.27 -0.542,0.26 -1.25,0.668 -1.575,0.907 -1.21,0.891 -5.042,2.165 -8.86,2.946 -6.233,1.275 -169.357,1.015 -174.605,-0.279 -3.926,-0.968 -7.747,-2.16 -8.858,-2.763 -0.433,-0.235 -1.939,-0.993 -3.346,-1.685 C 93.719,319.18 84.873,306.637 84.07,295.669 83.163,283.277 75.816,276.235 65.144,277.529"
       stroke="none"
       fill="#1b4055"
       fill-rule="evenodd"
       style="fill:#0e111b;fill-opacity:1" />
    <path
       id="path2"
       d="m 193.991,166.15 c -15.81,2.499 -26.098,10.396 -33.746,25.901 -3.804,7.713 -5.65,16.779 -4.811,23.628 0.679,5.542 1.435,9.602 1.954,10.502 0.655,1.134 2.455,5.144 2.455,5.47 0,1.473 8.338,11.466 11.614,13.919 0.649,0.486 1.997,1.493 2.994,2.238 1.608,1.2 4.409,2.833 8.029,4.681 0.65,0.331 3.307,1.28 5.906,2.108 l 4.724,1.505 h 7.481 c 7.929,0 7.577,0.057 15.157,-2.421 2.615,-0.855 3.687,-1.337 7.531,-3.389 12.008,-6.41 21.918,-20.371 23.59,-33.236 0.763,-5.87 -0.659,-17.86 -2.537,-21.387 -0.288,-0.541 -0.633,-1.442 -0.766,-2.001 -1.008,-4.248 -7.56,-13.271 -12.27,-16.896 -4.6,-3.542 -5.313,-4.036 -6.887,-4.78 -0.757,-0.358 -2.93,-1.381 -4.828,-2.273 -1.898,-0.892 -4.649,-1.874 -6.112,-2.182 -1.463,-0.308 -3.188,-0.767 -3.833,-1.02 -1.484,-0.582 -12.629,-0.844 -15.645,-0.367 m 11.941,24.245 c 20.324,5.998 20.991,31.669 1.043,40.079 -2.284,0.963 -10.451,0.878 -13.12,-0.136 -11.148,-4.237 -16.298,-14.779 -12.757,-26.112 0.778,-2.488 4.151,-7.712 5.244,-8.121 0.228,-0.085 0.781,-0.548 1.229,-1.028 3.739,-4.005 12.814,-6.319 18.361,-4.682"
       stroke="none"
       fill="#16b4e6"
       fill-rule="evenodd"
       style="fill:#66cfd2;fill-opacity:1" />
    <path
       id="path3"
       d="m 118.898,62.238 c -7.523,0.466 -17.801,2.86 -23.845,5.553 -0.881,0.392 -1.766,0.713 -1.969,0.714 -0.708,0.002 -8.865,4.369 -11.764,6.298 -2.208,1.469 -3.199,2.185 -3.564,2.576 -0.217,0.231 -1.634,1.417 -3.15,2.635 -2.403,1.931 -6.914,6.533 -7.748,7.903 -0.156,0.258 -0.567,0.823 -0.913,1.256 -2.411,3.023 -8.817,14.436 -8.872,15.805 -0.007,0.185 -0.355,1.046 -0.774,1.912 -0.418,0.866 -0.766,1.814 -0.774,2.106 -0.007,0.292 -0.267,1.089 -0.578,1.771 -1.784,3.919 -4.019,16.317 -3.666,20.335 1.161,13.23 12.342,19.738 23.863,13.891 6.025,-3.058 8.799,-8.127 9.252,-16.906 0.221,-4.273 1.413,-9.055 2.832,-11.355 0.267,-0.433 0.617,-1.227 0.778,-1.764 0.883,-2.94 6.63,-9.351 11.848,-13.218 4.753,-3.521 7.683,-4.749 15.5,-6.497 4.694,-1.049 172.169,-0.571 176.181,0.503 7.607,2.036 13.536,5.364 18.749,10.525 2.614,2.588 6.645,7.774 6.645,8.548 0,0.147 0.277,0.573 0.616,0.947 1.022,1.129 1.705,4.54 2.332,11.639 0.364,4.131 0.823,7.183 1.183,7.874 0.324,0.621 0.59,1.373 0.591,1.672 0.023,5.143 11.73,11.359 17.916,9.514 0.866,-0.258 2.41,-0.705 3.432,-0.992 3.033,-0.854 7.746,-5.197 8.984,-8.278 1.966,-4.894 2.326,-8.771 1.248,-13.438 -0.444,-1.92 -1.186,-5.263 -1.65,-7.428 -0.465,-2.166 -1.187,-4.827 -1.606,-5.914 -0.419,-1.086 -0.762,-2.194 -0.762,-2.462 0,-0.267 -0.355,-1.147 -0.788,-1.955 -0.433,-0.808 -0.787,-1.684 -0.787,-1.948 0,-0.888 -4.299,-8.741 -6.641,-12.131 -4.159,-6.02 -11.334,-13.107 -17.99,-17.77 -1.859,-1.303 -9.433,-5.544 -10.468,-5.861 -0.509,-0.156 -1.121,-0.44 -1.361,-0.631 -1.096,-0.873 -10.33,-3.64 -14.328,-4.294 -1.624,-0.266 -3.838,-0.652 -4.921,-0.859 -2.236,-0.427 -166.382,-0.689 -173.031,-0.276 m 174.315,1.449 c 3.305,0.461 6.212,0.965 6.46,1.118 0.249,0.154 1.443,0.507 2.653,0.786 7.357,1.692 18.08,7.196 25.036,12.851 3.039,2.469 11.614,11.357 11.614,12.037 0,0.108 0.735,1.17 1.632,2.358 1.805,2.391 6.636,11.582 6.636,12.625 0,0.364 0.234,1.011 0.52,1.439 0.287,0.427 0.928,2.016 1.426,3.532 0.87,2.647 1.203,4.085 2.552,11.024 0.337,1.732 0.792,3.663 1.01,4.291 1.26,3.618 -1.169,11.978 -4.425,15.235 -1.678,1.678 -5.061,3.899 -5.938,3.899 -0.403,0 -1.671,0.273 -2.817,0.606 -2.476,0.72 -8.262,-0.234 -11.058,-1.823 -1.724,-0.98 -4.892,-3.858 -4.892,-4.444 0,-0.209 -0.248,-0.659 -0.551,-1.001 -1.056,-1.191 -2.207,-6.826 -2.579,-12.629 -0.462,-7.2 -1.177,-9.134 -5.824,-15.748 -2.589,-3.686 -12.145,-11.418 -14.111,-11.418 -0.253,0 -0.667,-0.248 -0.919,-0.552 -0.252,-0.303 -0.938,-0.666 -1.524,-0.806 -0.587,-0.139 -1.953,-0.588 -3.035,-0.998 -5.49,-2.076 0.853,-1.938 -92.547,-2.021 -79.735,-0.072 -86.736,-0.026 -88.471,0.575 -1.036,0.359 -2.142,0.653 -2.457,0.653 -0.911,0 -6.54,2.028 -8.058,2.904 -11.759,6.78 -20.06,19.214 -20.088,30.087 -0.023,8.719 -3.641,14.296 -11.017,16.984 -7.47,2.723 -15.329,-0.324 -18.725,-7.259 -2.212,-4.517 -1.291,-19.222 1.611,-25.702 0.318,-0.711 0.579,-1.6 0.579,-1.975 0,-0.374 0.354,-1.342 0.787,-2.15 0.433,-0.808 0.787,-1.658 0.787,-1.889 0,-0.443 1.759,-4.487 2.388,-5.489 0.203,-0.324 0.547,-1.033 0.763,-1.574 0.216,-0.542 0.561,-1.25 0.768,-1.575 0.207,-0.325 0.931,-1.544 1.608,-2.709 0.677,-1.164 1.568,-2.48 1.981,-2.923 0.413,-0.444 0.854,-1.129 0.979,-1.524 0.125,-0.395 0.381,-0.718 0.568,-0.718 0.188,0 0.446,-0.331 0.574,-0.734 0.404,-1.274 6.636,-7.397 11.366,-11.169 5.398,-4.304 14.603,-8.913 22.509,-11.269 7.214,-2.15 9.699,-2.646 18.11,-3.612 6.981,-0.802 167.998,-0.148 174.119,0.707 m -94.197,53.117 c -0.65,0.039 -4.636,0.278 -8.859,0.532 -4.222,0.253 -8.74,0.631 -10.039,0.839 -15.657,2.514 -23.399,4.354 -36.417,8.654 -2.057,0.68 -4.538,1.497 -5.512,1.817 -2.628,0.862 -6.35,2.325 -7.684,3.02 -0.646,0.337 -1.381,0.614 -1.635,0.615 -0.253,0.001 -0.961,0.26 -1.574,0.575 -0.613,0.316 -3.595,1.765 -6.627,3.221 -4.79,2.301 -8.699,4.408 -13.785,7.427 -0.73,0.433 -2.355,1.394 -3.613,2.135 -1.258,0.742 -3.504,2.159 -4.992,3.15 -1.488,0.991 -3.027,1.989 -3.42,2.219 -0.876,0.512 -8.674,6.209 -12.379,9.043 -1.924,1.472 -5.596,4.363 -6.119,4.817 -1.886,1.638 -2.826,2.443 -4.71,4.03 -1.918,1.615 -5.199,4.568 -7.876,7.086 -0.575,0.542 -2.878,2.668 -5.117,4.725 -11.086,10.185 -20.538,19.622 -25.191,25.151 -3.755,4.464 -2.764,6.803 7.872,18.575 3.876,4.29 17.078,17.517 21.069,21.11 1.729,1.556 3.763,3.386 4.521,4.068 3.063,2.755 16.066,13.196 18.769,15.071 0.688,0.477 3.257,2.388 5.709,4.247 2.453,1.86 6.154,4.517 8.226,5.906 4.868,3.263 4.719,3.171 8.635,5.37 1.84,1.034 3.701,2.09 4.134,2.346 0.433,0.257 3.799,1.975 7.48,3.819 6.29,3.151 8.835,4.275 16.535,7.308 5.758,2.268 7.062,2.741 10.433,3.785 1.841,0.569 4.366,1.373 5.612,1.785 1.246,0.413 2.663,0.751 3.15,0.752 0.486,0.002 1.346,0.244 1.911,0.539 0.565,0.294 2.07,0.665 3.346,0.824 1.276,0.159 3.05,0.536 3.943,0.838 0.893,0.303 2.665,0.707 3.937,0.9 1.273,0.192 3.997,0.625 6.054,0.962 19.399,3.181 44.596,2.433 62.992,-1.869 5.315,-1.242 9.211,-2.243 11.614,-2.981 1.3,-0.399 2.983,-0.85 3.741,-1 0.757,-0.151 1.562,-0.422 1.787,-0.603 0.226,-0.18 1.289,-0.52 2.363,-0.755 1.87,-0.41 4.953,-1.475 7.464,-2.578 0.649,-0.285 1.843,-0.722 2.652,-0.971 0.809,-0.249 1.572,-0.616 1.696,-0.817 0.124,-0.201 0.492,-0.365 0.818,-0.365 0.563,0 2.116,-0.657 7.432,-3.144 7.388,-3.455 13.7,-6.678 14.649,-7.478 0.261,-0.221 0.599,-0.402 0.75,-0.402 0.151,0 0.823,-0.411 1.493,-0.914 0.67,-0.504 1.542,-1.035 1.938,-1.181 1.594,-0.588 14.048,-8.92 19.95,-13.345 12.61,-9.457 14.869,-11.181 16.36,-12.489 0.878,-0.771 2.647,-2.287 3.931,-3.37 7.099,-5.985 28.344,-27.087 32.576,-32.357 4.041,-5.032 4.581,-7.046 2.687,-10.032 -2.124,-3.35 -24.823,-25.206 -34.556,-33.272 -0.831,-0.688 -2.052,-1.751 -2.715,-2.362 -7.245,-6.68 -20.378,-16.947 -26.096,-20.402 -1.007,-0.608 -5.251,-3.367 -6.443,-4.187 -0.587,-0.404 -1.155,-0.734 -1.262,-0.734 -0.107,0 -0.843,-0.44 -1.635,-0.977 -0.791,-0.537 -2.349,-1.444 -3.462,-2.015 -1.113,-0.57 -2.732,-1.445 -3.598,-1.943 -3.347,-1.926 -17.879,-8.826 -19.882,-9.44 -0.541,-0.167 -1.601,-0.632 -2.356,-1.035 -0.755,-0.403 -1.597,-0.732 -1.872,-0.732 -0.274,0 -1.16,-0.354 -1.968,-0.787 -0.808,-0.434 -1.687,-0.788 -1.954,-0.788 -0.266,0 -1.066,-0.252 -1.777,-0.561 -1.528,-0.663 -4.456,-1.641 -7.199,-2.404 -1.082,-0.301 -3.563,-1.007 -5.512,-1.569 -7.3,-2.106 -15.337,-3.968 -21.259,-4.925 -2.599,-0.42 -5.611,-0.926 -6.693,-1.124 -2.722,-0.498 -19.683,-1.52 -22.441,-1.353 m 12.577,1.319 c 3.886,0.216 7.695,0.559 8.464,0.763 0.77,0.204 2.994,0.56 4.943,0.792 3.406,0.406 6.112,0.927 11.614,2.235 1.408,0.335 3.445,0.783 4.528,0.995 1.082,0.213 3.474,0.831 5.315,1.373 1.84,0.543 4.852,1.42 6.693,1.949 5.499,1.581 10.516,3.193 11.445,3.68 0.34,0.178 1.846,0.805 3.346,1.394 9.223,3.62 19.356,8.492 27.855,13.393 7.779,4.486 7.981,4.606 9.615,5.73 0.813,0.56 2.985,2.033 4.825,3.274 8.582,5.786 14.141,10.179 23.425,18.51 1.516,1.36 3.994,3.519 5.507,4.796 1.513,1.278 3.033,2.589 3.378,2.914 0.346,0.325 2.74,2.535 5.321,4.912 17.543,16.156 24.18,23.175 24.18,25.571 0,2.733 -3.857,7.316 -18.267,21.704 -14.046,14.026 -20.339,19.605 -31.93,28.309 -7.386,5.547 -13.131,9.677 -17.126,12.313 -2.706,1.786 -5.236,3.47 -5.621,3.743 -0.386,0.272 -1.652,1.027 -2.815,1.677 -1.162,0.649 -3.859,2.181 -5.992,3.403 -2.133,1.223 -6.182,3.314 -8.997,4.647 -2.815,1.333 -5.649,2.678 -6.299,2.99 -2.722,1.305 -11.318,4.677 -15.157,5.944 -2.274,0.751 -4.666,1.55 -5.315,1.775 -0.65,0.226 -2.156,0.642 -3.347,0.926 -1.191,0.283 -2.697,0.709 -3.346,0.946 -1.587,0.579 -5.336,1.54 -8.465,2.17 -12.611,2.541 -15.076,2.922 -23.622,3.656 -13.773,1.183 -28.132,0.637 -43.11,-1.638 -2.166,-0.329 -4.912,-0.853 -6.103,-1.165 -1.191,-0.312 -4.468,-1.119 -7.283,-1.793 -6.132,-1.468 -10.14,-2.529 -12.008,-3.178 -4.39,-1.524 -7.362,-2.641 -11.22,-4.216 -2.382,-0.973 -5.128,-2.057 -6.103,-2.409 -1.831,-0.663 -16.751,-8.095 -20.008,-9.968 -1.013,-0.582 -2.216,-1.233 -2.672,-1.445 -1.422,-0.662 -11.968,-7.873 -15.832,-10.825 -2.024,-1.547 -4.073,-3.078 -4.553,-3.403 -1.022,-0.691 -9.401,-7.149 -9.691,-7.468 -0.108,-0.12 -2.145,-1.823 -4.527,-3.786 -17.51,-14.431 -40.599,-38.801 -40.495,-42.745 0.083,-3.178 9.54,-13.355 28.478,-30.647 3.785,-3.455 5.271,-4.796 11.514,-10.385 3.26,-2.919 6.784,-5.816 9.155,-7.528 0.599,-0.433 1.378,-1.062 1.731,-1.398 0.352,-0.336 1.083,-0.91 1.625,-1.276 0.541,-0.366 2.313,-1.639 3.937,-2.829 4.07,-2.981 13.492,-9.285 16.275,-10.889 1.265,-0.728 2.815,-1.635 3.445,-2.014 0.63,-0.379 1.722,-1.034 2.425,-1.457 1.629,-0.978 14.03,-7.143 16.634,-8.268 4.102,-1.773 10.694,-4.308 12.287,-4.725 0.911,-0.238 1.75,-0.586 1.865,-0.772 0.115,-0.186 0.876,-0.452 1.69,-0.592 0.815,-0.139 2.101,-0.491 2.859,-0.78 5.088,-1.944 21.044,-5.913 27.953,-6.955 1.407,-0.212 4.153,-0.655 6.102,-0.985 6.587,-1.114 20.75,-1.539 31.475,-0.945 m -16.334,30.446 c -0.117,0.12 -2.597,0.403 -5.512,0.63 -6.281,0.489 -16.733,2.468 -23.015,4.358 -1.299,0.39 -2.95,0.83 -3.668,0.976 -0.718,0.146 -1.781,0.514 -2.362,0.817 -0.581,0.303 -1.391,0.552 -1.801,0.553 -0.409,0.001 -1.472,0.332 -2.362,0.735 -0.89,0.403 -2.238,0.954 -2.996,1.223 -3.537,1.259 -4.645,1.687 -6.2,2.398 -0.921,0.421 -2.515,1.139 -3.544,1.597 -3.108,1.385 -11.57,5.677 -13.875,7.038 -1.189,0.702 -2.518,1.437 -2.952,1.634 -0.435,0.196 -1.5,0.787 -2.366,1.313 -0.866,0.525 -2.017,1.18 -2.559,1.455 -2.071,1.052 -12.197,7.671 -16.141,10.553 -1.191,0.87 -2.609,1.882 -3.15,2.249 -1.836,1.245 -8.455,6.554 -10.236,8.211 -0.975,0.906 -3.625,3.31 -5.889,5.342 -3.815,3.425 -5.636,5.237 -9.799,9.759 -1.831,1.989 -1.87,1.845 1.405,5.276 2.202,2.306 9.895,9.515 12.948,12.133 1.106,0.948 3.055,2.62 4.331,3.715 5.767,4.951 20.203,15.24 27.552,19.638 1.063,0.636 3.261,1.964 4.885,2.953 3.155,1.92 15.291,8.007 16.929,8.491 0.541,0.16 1.161,0.424 1.378,0.586 0.216,0.161 1.102,0.517 1.968,0.79 0.866,0.273 1.752,0.621 1.969,0.772 0.516,0.362 5.526,2.078 9.252,3.169 1.624,0.475 4.016,1.184 5.315,1.574 1.299,0.391 3.248,0.838 4.33,0.994 1.083,0.157 2.254,0.432 2.601,0.612 0.348,0.179 2.297,0.521 4.331,0.758 2.034,0.237 5.204,0.717 7.045,1.067 9.946,1.891 39.405,0.769 50,-1.904 4.373,-1.103 13.465,-3.786 15.945,-4.705 3.307,-1.226 11.353,-4.386 11.994,-4.711 0.332,-0.168 2.996,-1.493 5.919,-2.945 6.143,-3.051 14.705,-7.948 18.926,-10.825 1.608,-1.097 4.09,-2.772 5.514,-3.721 1.425,-0.95 3.019,-2.095 3.544,-2.545 0.524,-0.45 2.991,-2.441 5.481,-4.423 2.49,-1.983 5.325,-4.313 6.299,-5.177 11.248,-9.975 20.472,-19.053 20.472,-20.147 0,-0.728 -5.479,-6.285 -12.598,-12.776 -1.693,-1.543 -13.996,-11.417 -15.354,-12.322 -0.542,-0.361 -1.87,-1.289 -2.953,-2.063 -2.34,-1.671 -9.72,-6.651 -10.129,-6.834 -0.157,-0.07 -1.841,-1.087 -3.74,-2.259 -1.9,-1.172 -3.985,-2.39 -4.635,-2.708 -0.65,-0.317 -2.599,-1.383 -4.331,-2.368 -1.732,-0.984 -3.713,-2.053 -4.402,-2.374 -0.689,-0.321 -1.352,-0.744 -1.473,-0.94 -0.121,-0.196 -0.709,-0.478 -1.306,-0.627 -0.598,-0.149 -1.352,-0.502 -1.677,-0.784 -0.325,-0.283 -1.034,-0.649 -1.575,-0.813 -0.541,-0.165 -3.11,-1.317 -5.709,-2.56 -5.164,-2.47 -9.668,-4.32 -10.519,-4.32 -0.299,0 -0.712,-0.151 -0.918,-0.334 -0.205,-0.184 -2.234,-0.915 -4.507,-1.625 -2.274,-0.71 -4.893,-1.534 -5.821,-1.832 -0.928,-0.297 -2.08,-0.548 -2.559,-0.557 -0.48,-0.01 -1.581,-0.276 -2.447,-0.592 -0.866,-0.317 -3.325,-0.844 -5.464,-1.172 -2.139,-0.329 -4.04,-0.691 -4.225,-0.805 -1.171,-0.724 -24.96,-2.213 -25.564,-1.601 m 16.403,1.429 c 3.058,0.209 6.594,0.649 7.858,0.978 1.265,0.329 2.926,0.594 3.693,0.589 2.439,-0.018 17.403,3.911 21.866,5.741 0.649,0.266 2.244,0.88 3.543,1.363 3.601,1.341 10.556,4.4 11.221,4.935 0.324,0.262 1.033,0.609 1.574,0.77 1.61,0.482 8.72,4.131 13.386,6.871 0.325,0.191 1.653,0.914 2.952,1.607 1.299,0.693 2.784,1.593 3.301,1.999 0.517,0.407 1.1,0.74 1.297,0.74 0.196,0 0.836,0.331 1.423,0.735 0.586,0.405 3.104,2.083 5.594,3.729 2.49,1.645 5.413,3.62 6.496,4.387 1.083,0.767 2.943,2.051 4.134,2.853 1.191,0.801 2.254,1.579 2.362,1.727 0.108,0.149 1.792,1.533 3.74,3.075 5.54,4.386 6.478,5.172 9.432,7.903 5.934,5.487 10.451,10.012 10.665,10.687 0.294,0.926 -7.102,8.371 -16.175,16.282 -1.49,1.299 -3.513,3.082 -4.496,3.963 -2.34,2.095 -10.983,8.994 -13.113,10.465 -6.992,4.831 -11.379,7.713 -12.887,8.467 -0.325,0.162 -1.186,0.698 -1.913,1.191 -0.727,0.493 -2.233,1.351 -3.346,1.907 -1.114,0.555 -2.734,1.436 -3.6,1.957 -0.866,0.52 -1.936,1.114 -2.377,1.319 -0.442,0.205 -2.834,1.344 -5.315,2.531 -2.482,1.187 -4.955,2.287 -5.497,2.444 -0.541,0.158 -1.338,0.506 -1.771,0.774 -0.433,0.268 -1.319,0.617 -1.969,0.776 -0.649,0.16 -1.712,0.534 -2.362,0.832 -1.734,0.797 -4.454,1.752 -6.693,2.351 -1.083,0.289 -2.5,0.717 -3.15,0.951 -2.526,0.909 -11.29,2.989 -15.157,3.597 -9.154,1.44 -10.597,1.553 -19.766,1.553 -9.404,0 -14.413,-0.482 -16.476,-1.586 -0.43,-0.23 -2.488,-0.361 -4.691,-0.298 -3.88,0.111 -5.922,-0.546 -2.473,-0.796 2.229,-0.161 2.126,-0.708 -0.196,-1.046 -1.029,-0.15 -2.259,-0.521 -2.733,-0.826 -1.077,-0.691 -4.029,-1.734 -4.931,-1.741 -0.371,-0.003 -1.219,-0.537 -1.884,-1.187 -0.664,-0.65 -1.557,-1.181 -1.983,-1.181 -0.427,0 -1.437,-0.355 -2.245,-0.788 -0.808,-0.433 -1.739,-0.787 -2.069,-0.787 -0.33,0 -0.821,-0.354 -1.092,-0.787 -0.27,-0.433 -0.899,-0.788 -1.397,-0.788 -0.498,0 -1.25,-0.26 -1.67,-0.578 -1.334,-1.009 -2.662,-0.783 -2.433,0.415 0.161,0.845 0.069,0.984 -0.545,0.824 -0.406,-0.106 -0.739,-0.033 -0.739,0.163 0,0.197 -0.266,0.357 -0.59,0.357 -0.325,0 -0.591,0.266 -0.591,0.591 0,0.325 0.188,0.59 0.417,0.59 0.229,0 1.09,0.542 1.913,1.203 1.644,1.321 3.149,1.311 4.086,-0.027 0.78,-1.113 2.415,-1.172 2.568,-0.093 0.097,0.683 -0.068,0.886 -0.722,0.886 -1.924,0 -0.422,0.99 1.672,1.101 1.944,0.104 2.222,0.225 2.432,1.063 0.21,0.836 0.491,0.96 2.405,1.064 1.192,0.065 2.158,0.296 2.146,0.512 -0.031,0.58 -4.367,0.273 -5.087,-0.361 -0.335,-0.295 -1.804,-0.608 -3.264,-0.696 -1.994,-0.121 -2.785,-0.341 -3.182,-0.884 -0.384,-0.525 -1.098,-0.741 -2.609,-0.789 -1.446,-0.046 -2.229,-0.27 -2.569,-0.735 -0.286,-0.39 -1.293,-0.773 -2.415,-0.919 -1.059,-0.137 -2.191,-0.47 -2.515,-0.739 -0.325,-0.269 -1.432,-0.61 -2.461,-0.758 -1.196,-0.172 -1.87,-0.465 -1.87,-0.812 0,-0.341 -0.662,-0.641 -1.789,-0.81 -1.062,-0.16 -1.728,-0.449 -1.64,-0.713 0.266,-0.801 1.546,-0.739 3.349,0.162 1.971,0.984 6.206,1.453 8.218,0.91 1.64,-0.442 0.896,-3.168 -0.755,-2.765 -1.59,0.389 -2.671,-0.798 -1.558,-1.71 l 0.903,-0.74 -1.592,-0.477 c -0.876,-0.263 -1.593,-0.627 -1.593,-0.809 0,-0.716 -0.686,-0.275 -1.147,0.736 l -0.486,1.067 -1.546,-1.724 c -0.85,-0.949 -1.545,-1.482 -1.545,-1.186 0,0.402 -0.114,0.426 -0.446,0.094 -0.245,-0.246 -0.341,-0.721 -0.212,-1.057 0.306,-0.798 1.408,-0.374 1.847,0.711 0.277,0.685 0.34,0.575 0.361,-0.63 0.027,-1.613 -1.268,-2.281 -4.895,-2.525 -1.029,-0.069 -1.804,-0.39 -2.24,-0.928 -0.471,-0.582 -0.936,-0.754 -1.591,-0.59 -1.671,0.42 -3.12,-0.421 -2.816,-1.633 0.245,-0.976 0.192,-1.03 -0.778,-0.787 -1.137,0.286 -1.569,-1.43 -0.603,-2.396 0.701,-0.702 -0.795,-2.448 -2.111,-2.463 -0.817,-0.009 -1.083,-0.206 -1.083,-0.8 0,-0.437 -0.263,-0.787 -0.591,-0.787 -0.324,0 -0.59,-0.151 -0.59,-0.336 0,-0.708 -2.455,-2.907 -2.737,-2.452 -0.488,0.79 -2.943,0.975 -3.53,0.267 -0.288,-0.346 -0.689,-0.629 -0.892,-0.629 -1.059,0 -4.74,-2.149 -5.042,-2.943 -0.187,-0.492 -0.796,-1.008 -1.353,-1.148 -0.557,-0.14 -1.013,-0.517 -1.013,-0.838 0,-0.32 -0.177,-0.583 -0.394,-0.583 -0.216,0 -0.394,-0.246 -0.394,-0.548 0,-0.301 -0.441,-0.658 -0.982,-0.794 -0.54,-0.135 -0.938,-0.46 -0.885,-0.722 0.053,-0.262 -0.347,-0.533 -0.888,-0.603 -1.812,-0.234 -2.228,-0.471 -1.564,-0.891 0.318,-0.202 0.446,-0.369 0.284,-0.373 -0.162,-0.003 -0.365,0.039 -0.451,0.093 -0.085,0.054 -0.528,-0.239 -0.984,-0.652 -0.456,-0.412 -0.829,-0.564 -0.829,-0.337 0,0.227 -0.289,0.523 -0.642,0.659 -0.553,0.212 -0.615,-0.003 -0.442,-1.533 0.189,-1.679 0.146,-1.779 -0.762,-1.779 -1.236,0 -2.576,-0.715 -2.269,-1.211 0.13,-0.211 0.046,-0.335 -0.187,-0.275 -0.233,0.059 -0.65,-0.335 -0.927,-0.876 -0.673,-1.317 -1.628,-1.264 -1.785,0.098 -0.145,1.258 -0.338,1.321 -1.321,0.431 -0.67,-0.606 -0.77,-0.606 -1.44,0 -0.975,0.883 -1.248,0.821 -1.248,-0.284 0,-1.16 -0.634,-1.711 -2.166,-1.884 -0.961,-0.108 -1.204,-0.338 -1.307,-1.236 -0.089,-0.772 -0.443,-1.223 -1.182,-1.504 -0.58,-0.22 -2.065,-0.864 -3.3,-1.431 l -2.246,-1.03 -0.116,-1.994 -0.116,-1.993 h -1.837 c -2.144,0 -2.699,-0.348 -1.544,-0.966 1.157,-0.619 1.02,-1.692 -0.344,-2.7 -1.938,-1.433 -2.34,-1.087 -1.396,1.205 0.246,0.598 0.043,0.689 -1.53,0.689 -0.998,0 -1.814,-0.177 -1.814,-0.393 0,-0.217 0.247,-0.394 0.548,-0.394 0.301,0 0.659,-0.443 0.795,-0.984 0.136,-0.542 0.509,-0.984 0.83,-0.984 0.32,0 0.583,-0.188 0.583,-0.416 0,-0.548 3.711,-4.309 4.251,-4.309 0.231,0 0.533,-0.354 0.67,-0.787 0.138,-0.433 0.431,-0.788 0.652,-0.788 0.442,0 3.499,-3.006 5.057,-4.971 1.135,-1.432 6.033,-5.443 10.039,-8.22 1.516,-1.051 2.845,-2.016 2.953,-2.145 0.189,-0.224 4.279,-2.94 11.417,-7.581 1.841,-1.197 4.587,-2.849 6.103,-3.672 1.515,-0.823 3.464,-1.903 4.33,-2.401 3.562,-2.046 13.065,-6.864 16.929,-8.583 1.3,-0.578 2.894,-1.309 3.544,-1.624 0.649,-0.316 1.712,-0.741 2.362,-0.944 0.65,-0.204 2.421,-0.841 3.937,-1.415 1.516,-0.575 3.599,-1.283 4.629,-1.573 1.03,-0.291 2.067,-0.648 2.304,-0.795 1.102,-0.681 11.011,-3.024 16.689,-3.946 1.949,-0.317 4.139,-0.769 4.868,-1.004 2.963,-0.959 18.549,-1.37 27.857,-0.734 m -13.237,14.827 c -11.562,1.108 -17.057,2.991 -24.409,8.364 -3.048,2.228 -6.964,6.015 -8.421,8.144 -3.233,4.726 -4.831,7.388 -6.323,10.534 -2.513,5.297 -2.94,6.393 -3.207,8.237 -0.132,0.917 -0.504,2.553 -0.826,3.636 -0.76,2.555 -1.134,12.35 -0.571,14.961 1.222,5.67 1.719,7.37 3.052,10.433 2.653,6.096 8.639,13.903 13.132,17.126 0.906,0.649 2.484,1.821 3.507,2.603 7.918,6.057 19.326,9.123 30.541,8.209 4.333,-0.353 10.866,-1.892 11.813,-2.783 0.205,-0.194 0.648,-0.352 0.984,-0.352 1.091,-0.001 5.348,-2.225 9.389,-4.907 27.702,-18.384 28.039,-56.228 0.677,-76.073 -1.871,-1.356 -9.906,-5.211 -12.148,-5.827 -1.118,-0.308 -3.007,-0.822 -4.198,-1.144 -2.215,-0.599 -9.093,-1.469 -10.713,-1.356 -0.495,0.035 -1.521,0.122 -2.279,0.195 m 11.211,1.692 c 0.645,0.253 2.37,0.712 3.833,1.02 1.463,0.308 4.214,1.29 6.112,2.182 1.898,0.892 4.071,1.915 4.828,2.273 7.245,3.423 17.608,15.149 19.157,21.676 0.133,0.559 0.478,1.46 0.766,2.001 1.878,3.527 3.3,15.517 2.537,21.387 -1.672,12.865 -11.582,26.826 -23.59,33.236 -3.844,2.052 -4.916,2.534 -7.531,3.389 -7.58,2.478 -7.228,2.421 -15.157,2.421 h -7.481 l -4.724,-1.505 c -2.599,-0.828 -5.256,-1.777 -5.906,-2.108 -3.62,-1.848 -6.421,-3.481 -8.029,-4.681 -0.997,-0.745 -2.345,-1.752 -2.994,-2.238 -3.276,-2.453 -11.614,-12.446 -11.614,-13.919 0,-0.326 -1.8,-4.336 -2.455,-5.47 -0.519,-0.9 -1.275,-4.96 -1.954,-10.502 -0.839,-6.849 1.007,-15.915 4.811,-23.628 7.648,-15.505 17.936,-23.402 33.746,-25.901 3.016,-0.477 14.161,-0.215 15.645,0.367 m -14.263,24.223 c -3.049,1.137 -6.72,3.178 -7.802,4.337 -0.448,0.48 -1.001,0.943 -1.229,1.028 -1.093,0.409 -4.466,5.633 -5.244,8.121 -3.541,11.333 1.609,21.875 12.757,26.112 2.669,1.014 10.836,1.099 13.12,0.136 11.461,-4.832 17.221,-15.775 13.72,-26.067 -3.649,-10.729 -15.726,-17.247 -25.322,-13.667 m 10.533,0.774 c 10.424,2.606 17.301,14.243 14.203,24.037 -6.443,20.367 -34.614,19.587 -38.867,-1.075 -2.821,-13.706 10.833,-26.419 24.664,-22.962 M 78.346,211.22 c 0.27,0.325 0.716,0.591 0.991,0.591 0.753,0 1.016,1.082 0.327,1.347 -0.739,0.283 -1.318,-0.038 -1.318,-0.734 0,-0.287 -0.372,-0.618 -0.827,-0.737 -0.455,-0.119 -0.71,-0.405 -0.567,-0.637 0.359,-0.581 0.817,-0.525 1.394,0.17 m 5.923,6.637 c -0.526,0.526 -1.408,-0.271 -1.011,-0.913 0.205,-0.33 0.426,-0.323 0.849,0.028 0.397,0.33 0.446,0.601 0.162,0.885 m 14.747,-0.534 c -0.287,0.464 0.085,1.181 0.614,1.181 0.203,0 0.37,-0.354 0.37,-0.787 0,-0.831 -0.573,-1.06 -0.984,-0.394 m -12.599,1.575 c 0.134,0.216 -0.121,0.393 -0.567,0.393 -0.446,0 -0.811,-0.177 -0.811,-0.393 0,-0.217 0.256,-0.394 0.568,-0.394 0.312,0 0.676,0.177 0.81,0.394 m 13.868,-0.154 c -0.508,0.508 0.582,1.335 1.761,1.335 0.893,0 1.131,-0.159 1.031,-0.689 -0.134,-0.706 -2.244,-1.194 -2.792,-0.646 m -10.592,3.209 c 0.07,0.494 0.403,0.882 0.756,0.882 0.884,0 2.071,1.162 2.071,2.029 0,0.4 -0.266,0.727 -0.591,0.727 -0.325,0 -0.59,-0.266 -0.59,-0.591 0,-0.325 -0.283,-0.591 -0.628,-0.591 -0.345,0 -0.72,-0.354 -0.833,-0.787 -0.114,-0.436 -0.537,-0.787 -0.948,-0.787 -0.534,0 -0.741,-0.284 -0.741,-1.013 0,-1.293 1.317,-1.178 1.504,0.131 m 7.375,6.034 c 0.406,0.656 -0.324,1.148 -1.315,0.889 -0.702,-0.183 -0.793,-0.346 -0.438,-0.774 0.54,-0.651 1.388,-0.706 1.753,-0.115 m 1.87,2.126 c 0.043,0.213 -0.232,0.448 -0.611,0.521 -0.431,0.083 -0.689,-0.11 -0.689,-0.516 0,-0.685 1.163,-0.69 1.3,-0.005 m 40.432,16.541 c 1.275,0.729 1.831,0.729 2.111,0 0.18,-0.469 -0.116,-0.588 -1.434,-0.577 -1.639,0.014 -1.648,0.022 -0.677,0.577 m -10.236,4.176 c 0,0.193 -0.465,0.351 -1.033,0.351 -0.854,0 -0.951,-0.098 -0.561,-0.567 0.478,-0.577 1.594,-0.426 1.594,0.216 m 4.889,2.559 c 0.958,0.367 0.738,0.942 -0.362,0.942 -0.955,0 -1.257,-0.384 -0.721,-0.919 0.319,-0.319 0.312,-0.319 1.083,-0.023 m 3.379,1.926 c 0.414,0.499 0.33,0.591 -0.543,0.591 -0.655,0 -1.032,-0.216 -1.032,-0.591 0,-0.325 0.244,-0.591 0.542,-0.591 0.298,0 0.763,0.266 1.033,0.591 m 3.149,1.814 c 0,0.193 -0.464,0.351 -1.032,0.351 -0.854,0 -0.951,-0.098 -0.562,-0.567 0.478,-0.576 1.594,-0.425 1.594,0.216 m 3.701,1.374 c 0.156,0.408 -0.145,0.552 -1.154,0.552 -1.406,0 -1.683,-0.312 -0.939,-1.057 0.536,-0.535 1.812,-0.227 2.093,0.505 m -79.24,18.314 c -11.168,1.296 -15.955,12.024 -12.189,27.317 0.213,0.866 0.563,2.372 0.778,3.346 2.736,12.395 8.112,22.298 17.52,32.269 2.845,3.016 8.4,7.889 8.992,7.889 0.14,0 0.835,0.443 1.545,0.984 0.71,0.541 1.399,0.984 1.531,0.984 0.132,0 0.897,0.446 1.7,0.99 1.76,1.195 8.529,4.453 11.672,5.619 1.249,0.463 3.198,1.193 4.331,1.622 1.133,0.429 2.947,0.896 4.029,1.039 1.083,0.142 2.766,0.535 3.74,0.873 1.586,0.551 11.606,0.619 95.473,0.65 l 93.701,0.034 4.527,-1.261 c 6.647,-1.851 11.032,-3.443 13.78,-5.003 0.974,-0.554 2.144,-1.172 2.599,-1.375 7.442,-3.312 23.185,-19.48 25.622,-26.313 0.136,-0.382 0.429,-0.928 0.652,-1.214 0.511,-0.658 2.157,-4.553 2.692,-6.369 0.224,-0.758 0.556,-1.562 0.739,-1.788 0.182,-0.225 0.504,-1.11 0.714,-1.968 0.211,-0.858 0.931,-2.977 1.6,-4.709 0.67,-1.732 1.395,-4.39 1.613,-5.905 0.217,-1.516 0.682,-4.059 1.034,-5.65 2.717,-12.277 -4.764,-21.98 -16.84,-21.844 -10.663,0.121 -15.1,5.074 -16.486,18.406 -1.829,17.593 -13.955,30.758 -30.462,33.071 -4.539,0.637 -162.868,1.232 -166.588,0.627 -8.051,-1.31 -13.887,-2.933 -17.125,-4.764 -0.325,-0.184 -1.3,-0.675 -2.166,-1.091 -3.711,-1.782 -10.371,-7.985 -12.926,-12.037 -2.06,-3.269 -2.175,-3.472 -3.344,-5.931 -1.649,-3.467 -2.334,-6.171 -2.79,-11.024 -0.96,-10.209 -8.426,-18.45 -16.176,-17.856 -0.325,0.025 -1.896,0.197 -3.492,0.382 m 8.933,1.747 c 5.9,2.663 9.515,8.771 10.125,17.105 0.803,10.968 9.649,23.511 20.261,28.727 1.407,0.692 2.913,1.45 3.346,1.685 1.111,0.603 4.932,1.795 8.858,2.763 5.248,1.294 168.372,1.554 174.605,0.279 3.818,-0.781 7.65,-2.055 8.86,-2.946 0.325,-0.239 1.033,-0.647 1.575,-0.907 10.22,-4.912 17.499,-15.702 19.072,-28.27 1.53,-12.231 3.52,-15.989 9.648,-18.219 13.13,-4.78 25.179,5.612 22.334,19.262 -0.337,1.618 -0.722,3.916 -0.854,5.107 -0.235,2.106 -1.403,6.482 -2.154,8.07 -0.204,0.434 -0.926,2.471 -1.603,4.528 -6.566,19.944 -23.013,36.146 -42.112,41.484 -10.22,2.856 -0.678,2.61 -101.548,2.611 -100.091,0 -92.924,0.17 -101.799,-2.409 -6.523,-1.894 -15.568,-5.983 -19.587,-8.854 -1.03,-0.735 -1.979,-1.336 -2.11,-1.336 -0.401,0 -6.511,-5.167 -8.36,-7.069 -5.26,-5.412 -11.1,-13.437 -12.905,-17.734 -0.136,-0.325 -0.641,-1.476 -1.122,-2.559 -0.48,-1.083 -1.263,-3.12 -1.739,-4.528 -0.477,-1.407 -1.053,-3.09 -1.28,-3.74 -0.407,-1.159 -1.544,-5.953 -2.336,-9.842 -0.886,-4.359 -0.657,-12.748 0.423,-15.489 2.947,-7.475 12.738,-11.179 20.402,-7.719"
       stroke="none"
       fill="#a5c4d0"
       fill-rule="evenodd" />
    <path
       id="path4"
       d="m 117.126,61.822 c -2.598,0.154 -5.179,0.463 -5.734,0.688 -0.556,0.224 -2.062,0.534 -3.347,0.689 -1.285,0.155 -3.08,0.614 -3.988,1.022 -0.908,0.407 -2.209,0.74 -2.891,0.74 -0.681,0 -1.689,0.354 -2.24,0.787 -0.55,0.433 -1.464,0.789 -2.03,0.79 -0.567,0.001 -1.561,0.355 -2.211,0.785 -0.65,0.43 -1.556,0.783 -2.014,0.785 -0.458,10e-4 -1.283,0.357 -1.834,0.79 -0.55,0.433 -1.259,0.787 -1.574,0.787 -0.316,0 -1.025,0.354 -1.575,0.787 -0.551,0.434 -1.256,0.788 -1.567,0.788 -0.311,0 -0.887,0.354 -1.278,0.787 -0.392,0.433 -0.924,0.788 -1.182,0.788 -0.258,0 -0.878,0.354 -1.378,0.787 -0.499,0.433 -1.076,0.787 -1.282,0.787 -0.324,0 -1.233,0.649 -3.358,2.398 -0.279,0.229 -1.608,1.31 -2.953,2.401 -2.652,2.151 -7.054,6.613 -8.085,8.194 -0.352,0.541 -0.867,1.126 -1.143,1.299 -0.276,0.173 -0.501,0.49 -0.501,0.705 0,0.215 -0.67,1.314 -1.488,2.442 -0.818,1.127 -1.703,2.493 -1.966,3.034 -0.512,1.055 -1.048,1.967 -2.091,3.559 -0.361,0.55 -0.777,1.554 -0.926,2.231 -0.149,0.677 -0.508,1.322 -0.798,1.433 -0.29,0.111 -0.647,0.913 -0.794,1.782 -0.147,0.869 -0.505,1.777 -0.796,2.019 -0.291,0.241 -0.65,1.181 -0.799,2.089 -0.149,0.908 -0.498,1.916 -0.775,2.241 -0.278,0.325 -0.636,1.384 -0.795,2.354 -0.159,0.97 -0.532,2.134 -0.829,2.587 -0.297,0.453 -0.622,2.228 -0.723,3.945 -0.182,3.111 -0.181,3.114 0.194,0.76 0.207,-1.299 0.619,-2.982 0.916,-3.74 0.297,-0.758 0.659,-2.035 0.805,-2.838 0.145,-0.803 0.522,-1.954 0.838,-2.559 0.315,-0.605 0.58,-1.365 0.589,-1.69 0.008,-0.325 0.358,-1.299 0.776,-2.165 0.419,-0.866 0.767,-1.727 0.774,-1.912 0.055,-1.369 6.461,-12.782 8.872,-15.805 0.346,-0.433 0.757,-0.998 0.913,-1.256 0.834,-1.37 5.345,-5.972 7.748,-7.903 1.516,-1.218 2.933,-2.404 3.15,-2.635 0.365,-0.391 1.356,-1.107 3.564,-2.576 2.899,-1.929 11.056,-6.296 11.764,-6.298 0.203,-10e-4 1.088,-0.322 1.969,-0.714 3.945,-1.758 9.493,-3.35 15.318,-4.396 2.347,-0.421 4.65,-0.893 5.118,-1.047 0.467,-0.154 9.796,-0.395 20.731,-0.535 l 19.882,-0.255 -17.126,-0.008 c -9.419,-0.004 -19.252,0.118 -21.85,0.272 m 46.38,0.283 c 2.339,0.07 6.06,0.069 8.267,-10e-4 2.208,-0.07 0.294,-0.127 -4.253,-0.126 -4.548,0 -6.354,0.057 -4.014,0.127 m 29.882,-0.002 c 1.452,0.075 3.933,0.076 5.512,10e-4 1.579,-0.075 0.391,-0.137 -2.64,-0.138 -3.032,0 -4.324,0.061 -2.872,0.137 m 89.88,0.084 c 5.413,0.129 10.038,0.358 10.276,0.508 0.239,0.149 1.745,0.472 3.347,0.716 3.859,0.589 13.162,3.36 14.287,4.256 0.24,0.191 0.852,0.475 1.361,0.631 1.035,0.317 8.609,4.558 10.468,5.861 6.656,4.663 13.831,11.75 17.99,17.77 2.342,3.39 6.641,11.243 6.641,12.131 0,0.264 0.354,1.14 0.787,1.948 0.433,0.808 0.788,1.688 0.788,1.955 0,0.268 0.343,1.376 0.762,2.462 0.419,1.087 1.141,3.748 1.606,5.914 0.464,2.165 1.206,5.508 1.65,7.428 1.078,4.667 0.718,8.544 -1.248,13.438 -1.238,3.081 -5.951,7.424 -8.984,8.278 -1.022,0.287 -2.566,0.734 -3.432,0.992 -6.186,1.845 -17.893,-4.371 -17.916,-9.514 -0.001,-0.299 -0.277,-1.07 -0.612,-1.713 -0.335,-0.643 -0.767,-2.769 -0.959,-4.724 l -0.349,-3.555 0.138,4.063 c 0.103,3.014 0.3,4.242 0.765,4.755 0.344,0.381 0.626,1.053 0.626,1.494 0,0.441 0.354,1.252 0.787,1.803 0.433,0.55 0.788,1.194 0.788,1.431 0,0.648 3.063,3.579 3.74,3.579 0.325,0 0.59,0.139 0.59,0.309 0,2.094 11.903,3.634 15.355,1.987 0.758,-0.362 1.743,-0.762 2.19,-0.889 0.447,-0.128 1.488,-0.85 2.313,-1.607 0.826,-0.756 1.656,-1.374 1.845,-1.374 0.19,0 0.345,-0.165 0.345,-0.366 0,-0.201 0.291,-0.657 0.647,-1.013 1.776,-1.776 3.209,-4.637 4.142,-8.267 0.533,-2.072 0.162,-9.077 -0.573,-10.827 -0.319,-0.758 -0.7,-2.546 -0.848,-3.974 -0.148,-1.428 -0.523,-3.087 -0.834,-3.687 -0.311,-0.599 -0.566,-1.564 -0.566,-2.143 0,-0.579 -0.334,-1.709 -0.743,-2.51 -0.408,-0.801 -0.856,-2.061 -0.994,-2.799 -0.139,-0.739 -0.495,-1.544 -0.791,-1.79 -0.297,-0.246 -0.661,-1.106 -0.81,-1.91 -0.15,-0.804 -0.502,-1.728 -0.783,-2.053 -0.28,-0.325 -0.644,-1.033 -0.808,-1.575 -0.163,-0.541 -0.627,-1.406 -1.031,-1.923 -0.403,-0.516 -0.733,-1.186 -0.733,-1.489 0,-0.302 -0.25,-0.645 -0.555,-0.762 -0.305,-0.118 -0.655,-0.611 -0.777,-1.097 -0.121,-0.485 -0.536,-1.271 -0.921,-1.746 -0.385,-0.475 -1.054,-1.32 -1.487,-1.877 -3.745,-4.819 -5.971,-7.411 -7.925,-9.228 -2.988,-2.779 -6.297,-5.5 -6.688,-5.5 -0.195,0 -0.576,-0.354 -0.847,-0.787 -0.27,-0.433 -0.756,-0.788 -1.079,-0.788 -0.323,0 -0.587,-0.173 -0.587,-0.385 0,-0.212 -0.664,-0.75 -1.476,-1.196 -0.812,-0.446 -2.185,-1.226 -3.052,-1.734 -0.866,-0.508 -2.549,-1.407 -3.74,-1.998 -1.191,-0.591 -2.519,-1.259 -2.952,-1.485 -1.679,-0.876 -2.256,-1.104 -5.512,-2.178 -0.65,-0.214 -2.067,-0.691 -3.15,-1.059 -1.083,-0.367 -3.076,-0.822 -4.431,-1.01 -1.354,-0.188 -3.265,-0.614 -4.246,-0.947 -1.444,-0.491 -3.674,-0.593 -11.711,-0.536 l -9.927,0.07 9.843,0.236 m -160.63,32.706 c -7.005,0.264 -10.963,0.813 -12.828,1.778 -0.61,0.315 -1.34,0.573 -1.621,0.573 -4.373,0.003 -18.618,12.513 -20.183,17.724 -0.161,0.537 -0.511,1.331 -0.778,1.764 -1.419,2.3 -2.611,7.082 -2.832,11.355 -0.453,8.779 -3.227,13.848 -9.252,16.906 -13.95,7.08 -25.795,-3.311 -23.464,-20.584 0.281,-2.086 0.271,-2.122 -0.282,-0.984 -0.782,1.606 -0.834,10.03 -0.073,11.535 0.296,0.585 0.66,1.737 0.809,2.561 0.15,0.823 0.528,1.595 0.84,1.715 0.313,0.12 0.569,0.565 0.569,0.989 0,0.868 4.048,4.914 5.294,5.292 0.445,0.135 1.106,0.506 1.468,0.824 1.631,1.43 12.034,1.406 13.676,-0.032 0.344,-0.3 1.041,-0.674 1.55,-0.829 0.509,-0.155 1.217,-0.537 1.575,-0.848 0.357,-0.312 1.226,-1.018 1.929,-1.571 0.704,-0.553 1.28,-1.255 1.28,-1.561 0,-0.305 0.147,-0.555 0.327,-0.555 0.497,0 2.823,-3.751 2.823,-4.552 0,-0.385 0.294,-1.027 0.655,-1.425 0.521,-0.576 0.687,-1.786 0.814,-5.936 0.122,-3.974 0.341,-5.652 0.92,-7.058 0.418,-1.014 0.76,-2.188 0.76,-2.609 0,-0.421 0.255,-0.976 0.565,-1.234 0.311,-0.258 0.689,-1.032 0.839,-1.721 0.151,-0.689 0.605,-1.675 1.01,-2.191 0.405,-0.517 0.736,-1.172 0.736,-1.457 0,-0.285 0.237,-0.66 0.527,-0.833 0.29,-0.173 0.688,-0.611 0.886,-0.973 1.297,-2.382 9.569,-9.677 12.904,-11.381 0.246,-0.125 1.19,-0.613 2.099,-1.083 0.909,-0.47 2.064,-0.854 2.565,-0.854 0.502,0 1.618,-0.399 2.481,-0.886 l 1.569,-0.886 h 89.37 89.37 l 1.575,0.833 c 0.866,0.458 2.222,0.95 3.012,1.093 0.79,0.143 1.653,0.521 1.918,0.84 0.265,0.32 0.79,0.581 1.168,0.581 0.377,0 1.136,0.354 1.687,0.787 0.55,0.433 1.141,0.787 1.311,0.787 0.317,0 3.155,1.847 3.932,2.559 0.237,0.217 1.015,0.837 1.73,1.378 1.582,1.199 3.412,3.049 4.73,4.782 0.542,0.712 1.25,1.568 1.575,1.903 0.325,0.336 0.824,1.05 1.109,1.589 1.407,2.656 2.037,3.686 2.39,3.903 0.212,0.131 0.593,2.184 0.847,4.563 0.555,5.206 1.326,7.042 0.989,2.355 -0.266,-3.69 -1.094,-7.083 -1.963,-8.043 -0.339,-0.374 -0.616,-0.8 -0.616,-0.947 0,-0.774 -4.031,-5.96 -6.645,-8.548 C 303.071,99.14 294.793,95.526 284.646,95.088 277.637,94.785 130.189,94.607 122.638,94.893 m 67.564,21.674 c -3.039,0.597 -2.324,0.867 1.565,0.592 7.971,-0.565 23.65,-0.027 29.69,1.018 1.299,0.225 4.399,0.737 6.889,1.137 5.692,0.915 13.821,2.803 21.063,4.892 1.949,0.562 4.43,1.268 5.512,1.569 2.743,0.763 5.671,1.741 7.199,2.404 0.711,0.309 1.511,0.561 1.777,0.561 0.267,0 1.146,0.354 1.954,0.788 0.808,0.433 1.694,0.787 1.968,0.787 0.275,0 1.117,0.329 1.872,0.732 0.755,0.403 1.815,0.868 2.356,1.035 2.003,0.614 16.535,7.514 19.882,9.44 0.866,0.498 2.485,1.373 3.598,1.943 1.113,0.571 2.671,1.478 3.462,2.015 0.792,0.537 1.528,0.977 1.635,0.977 0.107,0 0.675,0.33 1.262,0.734 1.192,0.82 5.436,3.579 6.443,4.187 5.718,3.455 18.851,13.722 26.096,20.402 0.663,0.611 1.884,1.674 2.715,2.362 9.733,8.066 32.432,29.922 34.556,33.272 1.894,2.986 1.354,5 -2.687,10.032 -4.232,5.27 -25.477,26.372 -32.576,32.357 -1.284,1.083 -3.053,2.599 -3.931,3.37 -1.491,1.308 -3.75,3.032 -16.36,12.489 -5.902,4.425 -18.356,12.757 -19.95,13.345 -0.396,0.146 -1.268,0.677 -1.938,1.181 -0.67,0.503 -1.342,0.914 -1.493,0.914 -0.151,0 -0.489,0.181 -0.75,0.402 -0.949,0.8 -7.261,4.023 -14.649,7.478 -5.316,2.487 -6.869,3.144 -7.432,3.144 -0.326,0 -0.694,0.164 -0.818,0.365 -0.124,0.201 -0.887,0.568 -1.696,0.817 -0.809,0.249 -2.003,0.686 -2.652,0.971 -2.511,1.103 -5.594,2.168 -7.464,2.578 -1.074,0.235 -2.137,0.575 -2.363,0.755 -0.225,0.181 -1.03,0.452 -1.787,0.603 -0.758,0.15 -2.441,0.601 -3.741,1 -2.403,0.738 -6.299,1.739 -11.614,2.981 -18.396,4.302 -43.593,5.05 -62.992,1.869 -2.057,-0.337 -4.781,-0.77 -6.054,-0.962 -1.272,-0.193 -3.044,-0.597 -3.937,-0.9 -0.893,-0.302 -2.667,-0.679 -3.943,-0.838 -1.276,-0.159 -2.781,-0.53 -3.346,-0.824 -0.565,-0.295 -1.425,-0.537 -1.911,-0.539 -0.487,-0.001 -1.904,-0.339 -3.15,-0.752 -1.246,-0.412 -3.771,-1.216 -5.612,-1.785 -3.371,-1.044 -4.675,-1.517 -10.433,-3.785 -7.7,-3.033 -10.245,-4.157 -16.535,-7.308 -3.681,-1.844 -7.047,-3.562 -7.48,-3.819 -0.433,-0.256 -2.294,-1.312 -4.134,-2.346 -3.916,-2.199 -3.767,-2.107 -8.635,-5.37 -2.072,-1.389 -5.773,-4.046 -8.226,-5.906 -2.452,-1.859 -5.021,-3.77 -5.709,-4.247 -2.703,-1.875 -15.706,-12.316 -18.769,-15.071 -0.758,-0.682 -2.792,-2.512 -4.521,-4.068 -3.991,-3.593 -17.193,-16.82 -21.069,-21.11 -10.636,-11.772 -11.627,-14.111 -7.872,-18.575 4.653,-5.529 14.105,-14.966 25.191,-25.151 2.239,-2.057 4.542,-4.183 5.117,-4.725 2.677,-2.518 5.958,-5.471 7.876,-7.086 1.884,-1.587 2.824,-2.392 4.71,-4.03 0.523,-0.454 4.195,-3.345 6.119,-4.817 3.705,-2.834 11.503,-8.531 12.379,-9.043 0.393,-0.23 1.932,-1.228 3.42,-2.219 1.488,-0.991 3.734,-2.408 4.992,-3.15 1.258,-0.741 2.883,-1.702 3.613,-2.135 5.086,-3.019 8.995,-5.126 13.785,-7.427 3.032,-1.456 6.014,-2.905 6.627,-3.221 0.613,-0.315 1.321,-0.574 1.574,-0.575 0.254,-0.001 0.989,-0.278 1.635,-0.615 1.334,-0.695 5.056,-2.158 7.684,-3.02 0.974,-0.32 3.455,-1.137 5.512,-1.817 10.89,-3.597 20.251,-5.987 28.74,-7.337 2.057,-0.327 4.608,-0.796 5.669,-1.042 1.062,-0.246 3.719,-0.588 5.906,-0.761 3.633,-0.288 3.492,-0.301 -1.629,-0.151 -3.722,0.108 -6.073,0.359 -6.999,0.746 -0.767,0.321 -2.763,0.702 -4.435,0.848 -1.672,0.146 -3.483,0.489 -4.024,0.763 -0.542,0.273 -2.048,0.626 -3.347,0.784 -1.299,0.158 -2.804,0.512 -3.346,0.786 -0.541,0.275 -2.047,0.681 -3.346,0.904 -2.155,0.369 -4.293,0.969 -7.481,2.097 -0.649,0.229 -2.12,0.651 -3.269,0.937 -1.148,0.286 -2.318,0.711 -2.599,0.944 -0.28,0.233 -1.347,0.538 -2.37,0.679 -1.023,0.14 -2.087,0.481 -2.364,0.759 -0.278,0.278 -1.195,0.627 -2.038,0.778 -0.843,0.15 -2.085,0.606 -2.76,1.012 -0.676,0.407 -1.533,0.74 -1.907,0.74 -0.373,0 -1.129,0.354 -1.68,0.787 -0.55,0.433 -1.34,0.788 -1.755,0.788 -0.415,0 -1.41,0.333 -2.211,0.739 -1.293,0.657 -2.504,1.218 -5.984,2.773 -0.541,0.242 -1.692,0.871 -2.559,1.398 -0.866,0.527 -1.84,1.069 -2.165,1.205 -1.847,0.775 -4.479,2.202 -4.724,2.563 -0.109,0.158 -0.862,0.565 -1.674,0.903 -0.812,0.338 -1.476,0.801 -1.476,1.029 0,0.227 -0.33,0.413 -0.734,0.413 -0.404,0 -1.185,0.355 -1.736,0.788 -0.55,0.433 -1.15,0.787 -1.332,0.788 -0.183,0 -1.306,0.667 -2.497,1.483 -1.191,0.816 -2.653,1.697 -3.248,1.96 -0.596,0.262 -1.083,0.638 -1.083,0.836 0,0.197 -0.443,0.47 -0.984,0.606 -0.541,0.136 -0.984,0.49 -0.984,0.788 0,0.297 -0.399,0.64 -0.886,0.763 -0.978,0.247 -2.304,1.163 -3.644,2.52 -0.482,0.487 -0.995,0.886 -1.142,0.886 -0.321,0 -1.826,1.057 -5.604,3.937 -1.563,1.191 -3.651,2.762 -4.641,3.491 -0.99,0.729 -1.8,1.482 -1.8,1.673 0,0.191 -0.257,0.348 -0.571,0.348 -0.314,0 -0.724,0.273 -0.911,0.607 -0.187,0.334 -1.214,1.228 -2.283,1.986 -1.778,1.261 -5.96,5.041 -12.048,10.891 -1.296,1.245 -2.455,2.264 -2.576,2.264 -0.12,0 -0.841,0.659 -1.601,1.465 -0.761,0.807 -2.022,1.972 -2.803,2.589 -3.029,2.396 -17.049,16.516 -20.614,20.761 -0.813,0.967 -1.734,2.031 -2.046,2.363 -2.675,2.842 -1.191,7.178 4.41,12.883 0.703,0.717 1.279,1.468 1.279,1.67 0,0.202 0.355,0.556 0.788,0.788 0.433,0.232 0.787,0.566 0.787,0.742 0,0.941 23.638,24.849 24.569,24.849 0.094,0 0.88,0.664 1.747,1.476 3.321,3.11 6.316,5.712 7.4,6.429 0.619,0.409 1.465,0.969 1.879,1.243 0.413,0.273 1.387,1.13 2.165,1.902 1.367,1.359 5.705,4.698 6.103,4.698 0.108,0 0.626,0.398 1.153,0.886 0.526,0.487 2.397,1.948 4.157,3.248 1.759,1.299 3.684,2.76 4.277,3.247 0.593,0.487 1.211,0.886 1.373,0.886 0.267,0 0.649,0.311 2.69,2.184 0.343,0.315 0.761,0.572 0.928,0.572 0.167,0 0.83,0.443 1.473,0.985 0.644,0.541 1.422,0.984 1.73,0.984 0.309,0 0.561,0.176 0.561,0.391 0,0.351 0.616,0.732 3.937,2.435 0.541,0.277 1.079,0.634 1.195,0.792 0.116,0.159 0.824,0.573 1.575,0.921 0.75,0.348 2.072,1.058 2.938,1.577 3.31,1.984 4.517,2.628 6.89,3.679 0.966,0.427 1.373,0.643 2.953,1.563 0.795,0.463 1.462,0.778 4.331,2.044 0.866,0.383 2.391,1.067 3.389,1.521 0.998,0.454 2.061,0.826 2.362,0.828 0.302,10e-4 1.079,0.354 1.729,0.784 0.65,0.431 1.535,0.785 1.969,0.788 0.433,0.003 1.318,0.357 1.968,0.787 0.65,0.43 1.538,0.784 1.974,0.785 0.437,10e-4 1.455,0.357 2.263,0.79 0.808,0.433 1.782,0.787 2.165,0.787 0.383,0 1.314,0.328 2.068,0.727 0.755,0.4 2.215,0.84 3.246,0.978 1.03,0.137 2.27,0.505 2.756,0.817 0.485,0.311 1.768,0.688 2.851,0.837 1.083,0.148 2.323,0.49 2.756,0.759 0.433,0.268 1.89,0.612 3.238,0.763 1.349,0.151 2.917,0.516 3.485,0.811 0.568,0.294 2.284,0.661 3.812,0.815 1.528,0.153 3.327,0.504 3.996,0.78 0.669,0.275 3.077,0.621 5.351,0.768 2.273,0.148 5.462,0.544 7.086,0.882 3.67,0.763 31.069,0.877 34.646,0.144 1.191,-0.244 3.937,-0.611 6.102,-0.817 2.166,-0.205 5.177,-0.64 6.693,-0.965 1.516,-0.326 3.772,-0.785 5.013,-1.019 1.241,-0.235 2.348,-0.574 2.459,-0.754 0.111,-0.18 1.425,-0.45 2.92,-0.6 1.495,-0.15 3.178,-0.512 3.74,-0.803 0.562,-0.292 1.864,-0.649 2.894,-0.794 1.029,-0.146 2.23,-0.488 2.668,-0.762 0.438,-0.274 1.517,-0.62 2.398,-0.769 0.881,-0.149 2.109,-0.534 2.729,-0.856 0.621,-0.322 1.934,-0.689 2.918,-0.816 0.984,-0.128 2.066,-0.471 2.405,-0.765 0.339,-0.293 1.225,-0.646 1.969,-0.786 0.743,-0.139 1.883,-0.565 2.533,-0.946 0.649,-0.381 1.757,-0.815 2.461,-0.964 0.703,-0.149 1.279,-0.419 1.279,-0.602 0,-0.182 0.576,-0.453 1.28,-0.601 0.703,-0.149 1.832,-0.606 2.507,-1.016 0.675,-0.41 1.492,-0.745 1.817,-0.745 0.324,0 1.04,-0.354 1.59,-0.787 0.551,-0.433 1.348,-0.788 1.772,-0.788 0.424,0 1.193,-0.331 1.709,-0.736 0.517,-0.405 1.527,-0.864 2.245,-1.021 0.719,-0.157 1.402,-0.534 1.519,-0.839 0.117,-0.304 0.524,-0.553 0.904,-0.553 0.381,0 1.129,-0.344 1.663,-0.763 0.533,-0.42 1.457,-0.886 2.053,-1.035 0.596,-0.15 1.177,-0.515 1.291,-0.812 0.113,-0.297 0.473,-0.54 0.799,-0.54 0.72,0 4.442,-2.364 4.442,-2.822 0,-0.18 0.33,-0.327 0.734,-0.327 0.404,0 1.185,-0.355 1.735,-0.788 0.551,-0.433 1.135,-0.787 1.299,-0.787 0.164,0 2.012,-1.152 4.106,-2.559 2.094,-1.408 4.005,-2.559 4.246,-2.559 0.241,0 0.581,-0.222 0.754,-0.492 0.173,-0.271 0.669,-0.718 1.102,-0.994 0.433,-0.275 1.347,-0.859 2.032,-1.297 0.684,-0.439 1.343,-1.055 1.464,-1.369 0.121,-0.315 0.417,-0.573 0.659,-0.573 0.563,0 12.184,-8.71 12.184,-9.132 0,-0.174 0.19,-0.317 0.423,-0.317 0.564,0 4.955,-3.336 6.564,-4.987 0.703,-0.721 1.391,-1.312 1.53,-1.312 0.138,0 0.64,-0.398 1.117,-0.886 0.476,-0.487 1.449,-1.328 2.163,-1.87 3.978,-3.018 30.218,-29.096 32.099,-31.902 0.649,-0.967 1.402,-1.901 1.673,-2.074 0.272,-0.173 0.494,-0.545 0.494,-0.826 0,-0.28 0.354,-0.919 0.787,-1.418 1.464,-1.689 1.105,-4.645 -0.87,-7.15 -1.923,-2.439 -10.032,-10.567 -10.543,-10.567 -0.19,0 -0.457,-0.354 -0.595,-0.787 -0.137,-0.433 -0.378,-0.788 -0.535,-0.788 -0.157,0 -1.795,-1.461 -3.64,-3.248 -1.845,-1.786 -4.927,-4.665 -6.849,-6.397 -1.922,-1.732 -4.243,-3.903 -5.157,-4.823 -0.914,-0.92 -1.752,-1.673 -1.862,-1.673 -0.11,0 -0.917,-0.665 -1.794,-1.477 -3.554,-3.289 -6.626,-6.01 -8.116,-7.188 -0.866,-0.685 -1.867,-1.54 -2.224,-1.9 -0.357,-0.361 -1.413,-1.276 -2.348,-2.034 -0.934,-0.758 -2.414,-2.003 -3.288,-2.767 -0.874,-0.765 -2.79,-2.271 -4.258,-3.347 -1.468,-1.076 -3.151,-2.355 -3.74,-2.842 -0.589,-0.487 -1.292,-0.885 -1.563,-0.886 -0.271,0 -0.492,-0.182 -0.492,-0.404 0,-0.222 -0.443,-0.571 -0.984,-0.777 -0.542,-0.206 -0.985,-0.535 -0.985,-0.73 0,-0.196 -0.575,-0.591 -1.279,-0.877 -0.704,-0.287 -1.457,-0.719 -1.673,-0.959 -0.513,-0.57 -5.883,-4.127 -6.23,-4.127 -0.147,0 -0.621,-0.355 -1.054,-0.788 -0.433,-0.433 -1.142,-0.787 -1.575,-0.787 -0.433,0 -0.787,-0.186 -0.787,-0.414 0,-0.227 -0.576,-0.682 -1.28,-1.011 -0.703,-0.329 -1.988,-1.022 -2.854,-1.542 -2.397,-1.436 -4.227,-2.455 -5.315,-2.96 -0.541,-0.251 -1.25,-0.616 -1.575,-0.811 -0.324,-0.195 -0.989,-0.53 -1.476,-0.745 -0.487,-0.215 -1.284,-0.567 -1.772,-0.782 -0.487,-0.215 -1.196,-0.569 -1.574,-0.787 -0.379,-0.218 -0.999,-0.575 -1.378,-0.793 -0.379,-0.218 -1.132,-0.588 -1.674,-0.821 -2.724,-1.175 -4.659,-2.06 -5.905,-2.7 -0.758,-0.39 -1.942,-0.831 -2.63,-0.98 -0.689,-0.149 -1.464,-0.526 -1.722,-0.837 -0.258,-0.311 -0.846,-0.566 -1.307,-0.567 -0.46,0 -1.417,-0.355 -2.126,-0.787 -0.709,-0.432 -1.598,-0.786 -1.975,-0.786 -0.377,0 -1.302,-0.328 -2.057,-0.73 -0.755,-0.401 -2.062,-0.857 -2.906,-1.012 -0.844,-0.156 -1.907,-0.516 -2.362,-0.799 -0.456,-0.284 -1.594,-0.629 -2.529,-0.768 -0.936,-0.139 -2.088,-0.493 -2.56,-0.787 -0.471,-0.294 -1.701,-0.641 -2.731,-0.771 -1.03,-0.13 -2.27,-0.487 -2.756,-0.793 -0.485,-0.305 -1.933,-0.68 -3.217,-0.831 -1.284,-0.152 -2.701,-0.506 -3.149,-0.788 -0.449,-0.281 -1.879,-0.629 -3.178,-0.773 -1.299,-0.144 -2.897,-0.506 -3.551,-0.805 -0.653,-0.298 -2.602,-0.665 -4.33,-0.816 -1.729,-0.15 -3.362,-0.448 -3.631,-0.661 -0.269,-0.213 -3.104,-0.633 -6.3,-0.934 -3.195,-0.302 -6.696,-0.713 -7.778,-0.916 -2.453,-0.458 -19.856,-0.449 -22.2,0.011 m -0.491,33.446 c -2.52,0.16 -5.186,0.489 -5.925,0.733 -0.738,0.244 -2.398,0.612 -3.686,0.818 -2.291,0.366 -2.27,0.371 0.907,0.205 1.789,-0.094 3.648,-0.382 4.133,-0.642 2.45,-1.311 27.192,-1.146 32.97,0.22 1.408,0.333 3.498,0.609 4.646,0.613 1.147,0.005 2.605,0.277 3.238,0.604 0.633,0.328 2.263,0.71 3.622,0.849 1.359,0.14 2.847,0.498 3.307,0.795 0.459,0.298 1.788,0.648 2.952,0.779 1.165,0.13 2.395,0.477 2.735,0.771 0.34,0.294 1.491,0.701 2.559,0.903 1.068,0.203 2.473,0.646 3.122,0.985 0.65,0.339 1.536,0.619 1.969,0.622 0.433,0.003 1.319,0.357 1.968,0.787 0.65,0.43 1.501,0.783 1.891,0.785 0.39,0.001 1.364,0.341 2.165,0.756 2.887,1.493 5.808,2.79 6.285,2.79 0.267,0 0.486,0.174 0.486,0.386 0,0.212 0.487,0.504 1.083,0.648 0.595,0.144 1.703,0.576 2.46,0.959 0.758,0.384 1.821,0.893 2.363,1.132 0.541,0.238 1.693,0.857 2.559,1.373 0.866,0.517 2.815,1.585 4.33,2.374 1.516,0.788 3.465,1.859 4.331,2.378 0.866,0.52 1.994,1.135 2.507,1.367 0.513,0.232 1.378,0.773 1.923,1.202 0.545,0.428 1.233,0.779 1.529,0.779 0.295,0 0.891,0.355 1.325,0.788 0.433,0.433 1.053,0.787 1.378,0.787 0.324,0 0.59,0.157 0.59,0.349 0,0.192 0.62,0.643 1.378,1.003 0.758,0.359 1.378,0.822 1.378,1.029 0,0.206 0.252,0.375 0.56,0.375 0.309,0 1.087,0.443 1.73,0.984 0.644,0.542 1.303,0.984 1.466,0.984 0.163,0 1.024,0.583 1.912,1.294 1.526,1.222 3.098,2.346 4.523,3.234 0.348,0.217 1.455,1.058 2.46,1.87 1.006,0.812 2.019,1.476 2.252,1.476 0.233,0 0.613,0.355 0.845,0.788 0.232,0.433 0.681,0.787 0.998,0.787 0.317,0 0.577,0.154 0.577,0.341 0,0.188 0.841,0.977 1.87,1.754 1.028,0.777 2.278,1.731 2.777,2.12 1.863,1.451 5.865,5.189 10.797,10.084 l 5.085,5.047 -5.911,5.78 c -5.564,5.441 -7.188,6.943 -11.444,10.584 -0.96,0.822 -2.207,1.938 -2.769,2.479 -0.562,0.542 -3.453,2.92 -6.423,5.286 -2.97,2.365 -5.4,4.447 -5.4,4.626 0,0.178 -0.249,0.324 -0.555,0.324 -0.305,0 -1.421,0.665 -2.479,1.477 -1.059,0.812 -2.203,1.653 -2.543,1.87 -0.34,0.216 -1.926,1.279 -3.524,2.362 -1.599,1.083 -3.394,2.182 -3.989,2.442 -0.596,0.26 -1.083,0.645 -1.083,0.854 0,0.21 -0.53,0.498 -1.178,0.641 -0.649,0.142 -1.313,0.466 -1.477,0.72 -0.164,0.254 -1.449,1.058 -2.857,1.788 -1.407,0.73 -3.267,1.745 -4.133,2.255 -1.788,1.053 -3.248,1.733 -3.718,1.733 -0.176,0 -0.531,0.255 -0.789,0.565 -0.258,0.311 -0.99,0.68 -1.627,0.82 -0.637,0.14 -1.378,0.471 -1.646,0.737 -0.268,0.265 -1.285,0.768 -2.26,1.116 -0.974,0.349 -2.613,0.936 -3.642,1.304 -1.028,0.368 -1.87,0.813 -1.87,0.989 0,0.175 -0.96,0.518 -2.135,0.762 -1.174,0.244 -2.347,0.699 -2.607,1.012 -0.26,0.313 -0.9,0.569 -1.424,0.569 -0.523,0 -1.646,0.355 -2.495,0.788 -0.849,0.433 -2.038,0.794 -2.642,0.804 -1.252,0.018 -4.299,1.515 -3.139,1.541 0.393,0.009 1.09,-0.184 1.548,-0.429 0.458,-0.245 1.731,-0.674 2.828,-0.952 2.2,-0.558 4.901,-1.494 6.72,-2.33 0.65,-0.298 1.713,-0.672 2.362,-0.832 0.65,-0.159 1.536,-0.508 1.969,-0.776 0.433,-0.268 1.23,-0.616 1.771,-0.774 0.542,-0.157 3.015,-1.257 5.497,-2.444 2.481,-1.187 4.873,-2.326 5.315,-2.531 0.441,-0.205 1.511,-0.799 2.377,-1.319 0.866,-0.521 2.486,-1.402 3.6,-1.957 1.113,-0.556 2.619,-1.414 3.346,-1.907 0.727,-0.493 1.588,-1.029 1.913,-1.191 1.508,-0.754 5.895,-3.636 12.887,-8.467 2.13,-1.471 10.773,-8.37 13.113,-10.465 0.983,-0.881 3.006,-2.664 4.496,-3.963 9.073,-7.911 16.469,-15.356 16.175,-16.282 -0.214,-0.675 -4.731,-5.2 -10.665,-10.687 -2.954,-2.731 -3.892,-3.517 -9.432,-7.903 -1.948,-1.542 -3.632,-2.926 -3.74,-3.075 -0.108,-0.148 -1.171,-0.926 -2.362,-1.727 -1.191,-0.802 -3.051,-2.086 -4.134,-2.853 -1.083,-0.767 -4.006,-2.742 -6.496,-4.387 -2.49,-1.646 -5.008,-3.324 -5.594,-3.729 -0.587,-0.404 -1.227,-0.735 -1.423,-0.735 -0.197,0 -0.78,-0.333 -1.297,-0.74 -0.517,-0.406 -2.002,-1.306 -3.301,-1.999 -1.299,-0.693 -2.627,-1.416 -2.952,-1.607 -4.666,-2.74 -11.776,-6.389 -13.386,-6.871 -0.541,-0.161 -1.25,-0.508 -1.574,-0.77 -0.665,-0.535 -7.62,-3.594 -11.221,-4.935 -1.299,-0.483 -2.894,-1.097 -3.543,-1.363 -4.463,-1.83 -19.427,-5.759 -21.866,-5.741 -0.767,0.005 -2.428,-0.26 -3.693,-0.589 -4.599,-1.198 -18.819,-1.657 -29.809,-0.963 m -14.246,2.212 c -0.141,0.141 -1.809,0.575 -3.707,0.964 -3.953,0.81 -8.874,2.1 -9.51,2.493 -0.237,0.147 -1.274,0.508 -2.304,0.803 -1.718,0.492 -3.521,1.125 -7.779,2.73 -1.527,0.575 -1.539,0.593 -0.393,0.608 0.649,0.008 1.712,-0.338 2.362,-0.768 0.649,-0.43 1.624,-0.784 2.165,-0.786 0.542,-0.002 1.516,-0.328 2.166,-0.724 0.649,-0.396 1.956,-0.844 2.904,-0.996 0.948,-0.151 2.094,-0.535 2.548,-0.853 0.454,-0.318 1.361,-0.586 2.017,-0.595 0.656,-0.01 1.901,-0.292 2.767,-0.628 0.866,-0.336 2.792,-0.777 4.279,-0.979 1.488,-0.203 3.171,-0.622 3.741,-0.931 l 1.035,-0.563 -1.017,-0.016 c -0.56,-0.008 -1.133,0.1 -1.274,0.241 m -26.646,8.227 c -0.541,0.296 -2.047,1.009 -3.347,1.584 -3.821,1.694 -13.342,6.52 -16.929,8.58 -0.866,0.498 -2.815,1.578 -4.33,2.401 -1.516,0.823 -4.262,2.475 -6.103,3.672 -7.138,4.641 -11.228,7.357 -11.417,7.581 -0.108,0.129 -1.437,1.094 -2.953,2.145 -4.006,2.777 -8.904,6.788 -10.039,8.22 -1.558,1.965 -4.615,4.971 -5.057,4.971 -0.221,0 -0.514,0.355 -0.652,0.788 -0.137,0.433 -0.439,0.787 -0.67,0.787 -0.54,0 -4.251,3.761 -4.251,4.309 0,0.228 -0.263,0.416 -0.583,0.416 -0.321,0 -0.694,0.442 -0.83,0.984 -0.136,0.541 -0.494,0.984 -0.795,0.984 -0.301,0 -0.548,0.177 -0.548,0.394 0,0.216 0.816,0.393 1.814,0.393 1.573,0 1.776,-0.091 1.53,-0.689 -0.944,-2.292 -0.542,-2.638 1.396,-1.205 1.364,1.008 1.501,2.081 0.344,2.7 -1.155,0.618 -0.6,0.966 1.544,0.966 h 1.837 l 0.116,1.993 0.116,1.994 2.246,1.03 c 1.235,0.567 2.72,1.211 3.3,1.431 0.739,0.281 1.093,0.732 1.182,1.504 0.103,0.898 0.346,1.128 1.307,1.236 1.532,0.173 2.166,0.724 2.166,1.884 0,1.105 0.273,1.167 1.248,0.284 0.67,-0.606 0.77,-0.606 1.44,0 0.983,0.89 1.176,0.827 1.321,-0.431 0.157,-1.362 1.112,-1.415 1.785,-0.098 0.277,0.541 0.694,0.935 0.927,0.876 0.233,-0.06 0.317,0.064 0.187,0.275 -0.307,0.496 1.033,1.211 2.269,1.211 0.908,0 0.951,0.1 0.762,1.779 -0.173,1.53 -0.111,1.745 0.442,1.533 0.353,-0.136 0.642,-0.432 0.642,-0.659 0,-0.227 0.373,-0.075 0.829,0.337 0.456,0.413 0.899,0.706 0.984,0.652 0.086,-0.054 0.289,-0.096 0.451,-0.093 0.162,0.004 0.034,0.171 -0.284,0.373 -0.664,0.42 -0.248,0.657 1.564,0.891 0.541,0.07 0.941,0.341 0.888,0.603 -0.053,0.262 0.345,0.587 0.885,0.722 0.541,0.136 0.982,0.493 0.982,0.794 0,0.302 0.178,0.548 0.394,0.548 0.217,0 0.394,0.263 0.394,0.583 0,0.321 0.456,0.698 1.013,0.838 0.557,0.14 1.166,0.656 1.353,1.148 0.302,0.794 3.983,2.943 5.042,2.943 0.203,0 0.604,0.283 0.892,0.629 0.587,0.708 3.042,0.523 3.53,-0.267 0.282,-0.455 2.737,1.744 2.737,2.452 0,0.185 0.266,0.336 0.59,0.336 0.328,0 0.591,0.35 0.591,0.787 0,0.594 0.266,0.791 1.083,0.8 1.316,0.015 2.812,1.761 2.111,2.463 -0.966,0.966 -0.534,2.682 0.603,2.396 0.97,-0.243 1.023,-0.189 0.778,0.787 -0.304,1.212 1.145,2.053 2.816,1.633 0.655,-0.164 1.12,0.008 1.591,0.59 0.436,0.538 1.211,0.859 2.24,0.928 3.627,0.244 4.922,0.912 4.895,2.525 -0.021,1.205 -0.084,1.315 -0.361,0.63 -0.439,-1.085 -1.541,-1.509 -1.847,-0.711 -0.129,0.336 -0.033,0.811 0.212,1.057 0.332,0.332 0.446,0.308 0.446,-0.094 0,-0.296 0.695,0.237 1.545,1.186 l 1.546,1.724 0.486,-1.067 c 0.461,-1.011 1.147,-1.452 1.147,-0.736 0,0.182 0.717,0.546 1.593,0.809 l 1.592,0.477 -0.903,0.74 c -1.113,0.912 -0.032,2.099 1.558,1.71 1.651,-0.403 2.395,2.323 0.755,2.765 -2.012,0.543 -6.247,0.074 -8.218,-0.91 -1.803,-0.901 -3.083,-0.963 -3.349,-0.162 -0.088,0.264 0.578,0.553 1.64,0.713 1.127,0.169 1.789,0.469 1.789,0.81 0,0.347 0.674,0.64 1.87,0.812 1.029,0.148 2.136,0.489 2.461,0.758 0.324,0.269 1.456,0.602 2.515,0.739 1.122,0.146 2.129,0.529 2.415,0.919 0.34,0.465 1.123,0.689 2.569,0.735 1.511,0.048 2.225,0.264 2.609,0.789 0.397,0.543 1.188,0.763 3.182,0.884 1.46,0.088 2.929,0.401 3.264,0.696 0.721,0.635 5.014,0.933 5.181,0.361 0.065,-0.221 -0.877,-0.445 -2.146,-0.512 -2.014,-0.105 -2.287,-0.221 -2.499,-1.064 -0.21,-0.838 -0.488,-0.959 -2.432,-1.063 -2.094,-0.111 -3.596,-1.101 -1.672,-1.101 0.654,0 0.819,-0.203 0.722,-0.886 -0.153,-1.079 -1.788,-1.02 -2.568,0.093 -0.937,1.338 -2.442,1.348 -4.086,0.027 -0.823,-0.661 -1.684,-1.203 -1.913,-1.203 -0.229,0 -0.417,-0.265 -0.417,-0.59 0,-0.325 0.266,-0.591 0.591,-0.591 0.324,0 0.59,-0.16 0.59,-0.357 0,-0.196 0.333,-0.269 0.739,-0.163 0.614,0.16 0.706,0.021 0.545,-0.824 -0.229,-1.198 1.099,-1.424 2.433,-0.415 0.42,0.318 1.172,0.578 1.67,0.578 0.498,0 1.127,0.355 1.397,0.788 0.271,0.433 0.762,0.787 1.092,0.787 0.33,0 1.261,0.354 2.069,0.787 0.808,0.433 1.818,0.788 2.245,0.788 0.426,0 1.319,0.531 1.983,1.181 0.665,0.65 1.513,1.184 1.884,1.187 0.902,0.007 3.854,1.05 4.931,1.741 0.474,0.305 1.704,0.676 2.733,0.826 2.283,0.333 2.435,0.882 0.288,1.046 -3.319,0.254 -1.298,0.906 2.467,0.796 2.144,-0.063 4.177,0.069 4.605,0.298 1.276,0.683 6.759,1.589 9.273,1.534 l 2.363,-0.053 -1.772,-0.293 c -3.605,-0.595 -6.335,-1.232 -7.664,-1.787 -0.751,-0.314 -1.864,-0.571 -2.472,-0.571 -0.608,0 -1.456,-0.236 -1.883,-0.526 -0.427,-0.289 -2.371,-1.018 -4.32,-1.62 -1.948,-0.602 -4.252,-1.414 -5.118,-1.805 -3.673,-1.658 -16.285,-7.99 -17.928,-9.001 -0.982,-0.605 -2.222,-1.261 -2.756,-1.459 -1.082,-0.402 -3.612,-1.914 -7.223,-4.317 -1.324,-0.881 -3.116,-2.071 -3.982,-2.644 -3.083,-2.039 -13.498,-9.906 -14.373,-10.857 -0.326,-0.355 -1.744,-1.619 -3.15,-2.81 -1.406,-1.191 -2.733,-2.364 -2.95,-2.607 -0.216,-0.242 -1.441,-1.279 -2.721,-2.303 -3.043,-2.434 -15.912,-15.136 -17.39,-17.164 -0.632,-0.867 -2.715,-3.474 -4.629,-5.794 -3.927,-4.761 -5.566,-7.068 -5.977,-8.414 -0.155,-0.508 -0.535,-1.212 -0.845,-1.565 -0.691,-0.79 -0.312,-2.662 0.609,-3.008 0.902,-0.338 5.559,-4.101 5.559,-4.491 0,-0.178 0.171,-0.323 0.38,-0.323 0.209,0 1.139,-0.542 2.067,-1.204 0.928,-0.662 2.263,-1.565 2.967,-2.007 0.704,-0.442 1.279,-0.964 1.279,-1.159 0,-0.195 0.166,-0.355 0.368,-0.355 0.577,0 4.357,-2.441 4.357,-2.814 0,-0.185 0.221,-0.339 0.492,-0.343 0.476,-0.006 3.797,-2.106 4.22,-2.668 0.218,-0.289 1.871,-1.278 3.555,-2.127 0.542,-0.273 1.119,-0.707 1.282,-0.965 0.164,-0.259 0.84,-0.589 1.503,-0.735 0.663,-0.145 1.301,-0.514 1.418,-0.818 0.117,-0.304 0.494,-0.553 0.838,-0.553 0.344,0 1.255,-0.403 2.025,-0.896 2.449,-1.568 2.94,-1.853 4.549,-2.648 0.866,-0.427 1.84,-0.945 2.165,-1.151 0.325,-0.206 1.565,-0.846 2.756,-1.422 1.191,-0.577 2.608,-1.281 3.149,-1.565 0.542,-0.284 1.428,-0.708 1.969,-0.942 0.541,-0.234 1.25,-0.574 1.575,-0.755 2.362,-1.318 4.004,-2.039 4.643,-2.039 0.41,0 1.067,-0.354 1.459,-0.787 0.812,-0.897 0.451,-0.962 -0.984,-0.178 m 43.898,4.382 c -1.949,0.3 -4.075,0.737 -4.725,0.971 -0.649,0.234 -1.979,0.65 -2.955,0.925 -2.12,0.596 -7.883,3.377 -8.931,4.31 -0.258,0.229 -1.112,0.86 -1.898,1.401 -1.286,0.886 -2.56,1.956 -6.138,5.153 -0.628,0.561 -1.141,1.225 -1.141,1.477 0,0.251 -0.168,0.457 -0.373,0.457 -0.204,0 -1.043,1.018 -1.863,2.263 -0.82,1.245 -1.637,2.441 -1.816,2.658 -2.196,2.657 -6.667,12.222 -7.178,15.354 -0.142,0.866 -0.552,2.372 -0.911,3.347 -0.986,2.67 -0.959,16.961 0.035,18.779 0.379,0.693 0.689,1.763 0.689,2.378 0,0.614 0.335,1.774 0.744,2.577 0.41,0.803 0.866,1.948 1.015,2.544 0.149,0.596 0.502,1.35 0.784,1.674 0.282,0.325 0.641,1.009 0.797,1.52 0.901,2.95 8.857,12.244 12.658,14.785 0.837,0.56 2.496,1.728 3.687,2.596 2.482,1.81 8.648,4.851 11.22,5.535 0.65,0.173 1.89,0.584 2.756,0.914 0.866,0.33 2.372,0.581 3.347,0.558 1.233,-0.029 1.412,-0.089 0.59,-0.197 -5.025,-0.66 -14.441,-4.652 -18.751,-7.95 -1.023,-0.782 -2.601,-1.954 -3.507,-2.603 -4.493,-3.223 -10.479,-11.03 -13.132,-17.126 -1.333,-3.063 -1.83,-4.763 -3.052,-10.433 -0.563,-2.611 -0.189,-12.406 0.571,-14.961 0.322,-1.083 0.694,-2.719 0.826,-3.636 0.54,-3.731 4.278,-11.093 9.53,-18.771 1.457,-2.129 5.373,-5.916 8.421,-8.144 7.483,-5.469 12.745,-7.239 25.019,-8.415 2.773,-0.266 9.265,0.37 12.382,1.212 1.191,0.322 3.08,0.836 4.198,1.144 2.242,0.616 10.277,4.471 12.148,5.827 10.646,7.721 16.847,16.992 19.499,29.156 0.328,1.504 0.343,1.453 0.194,-0.667 -0.089,-1.262 -0.412,-2.679 -0.718,-3.15 -0.306,-0.47 -0.688,-1.564 -0.849,-2.43 -0.16,-0.866 -0.519,-2.018 -0.796,-2.559 -0.278,-0.541 -0.795,-1.604 -1.15,-2.362 -0.355,-0.758 -0.995,-1.91 -1.422,-2.559 -0.427,-0.65 -0.96,-1.601 -1.184,-2.113 -0.225,-0.513 -0.714,-1.334 -1.089,-1.825 -0.375,-0.491 -0.947,-1.289 -1.272,-1.774 -3.082,-4.601 -13.668,-12.989 -16.394,-12.989 -0.294,0 -0.535,-0.163 -0.535,-0.363 0,-0.2 -0.664,-0.579 -1.476,-0.844 -0.812,-0.264 -1.826,-0.72 -2.253,-1.014 -0.427,-0.294 -1.136,-0.543 -1.575,-0.552 -0.439,-0.01 -1.507,-0.29 -2.373,-0.623 -4.948,-1.903 -14.557,-2.549 -21.653,-1.455 m 3.426,26.692 c -25.528,7.969 -15.982,44.869 9.874,38.169 4.145,-1.074 12.698,-7.568 11.52,-8.746 -0.113,-0.113 -1.549,1.233 -3.191,2.991 -4.573,4.893 -5.815,5.379 -13.755,5.378 -6.211,-0.001 -6.33,-0.017 -8.465,-1.155 -2.92,-1.556 -6.353,-4.371 -7.027,-5.765 -0.304,-0.626 -0.685,-1.138 -0.847,-1.138 -0.162,0 -0.397,-0.51 -0.522,-1.134 -0.125,-0.623 -0.485,-1.391 -0.8,-1.707 -1.638,-1.638 -1.676,-12.078 -0.053,-14.661 0.278,-0.443 0.636,-1.248 0.796,-1.789 0.276,-0.932 3.186,-4.769 3.834,-5.055 0.166,-0.074 0.521,-0.346 0.787,-0.605 5.046,-4.901 15.135,-6.318 21.019,-2.952 0.832,0.476 1.984,1.107 2.558,1.402 0.574,0.295 1.145,0.797 1.267,1.117 0.123,0.319 0.45,0.591 0.728,0.603 0.534,0.023 3.851,4.008 3.851,4.626 0,0.2 0.325,0.786 0.723,1.303 0.96,1.244 2.158,7.44 1.845,9.541 -0.501,3.37 -1.131,5.6 -1.838,6.51 -0.402,0.516 -0.73,1.225 -0.729,1.574 0.002,1.065 1.578,-1.87 2.384,-4.44 4.286,-13.668 -10.309,-28.329 -23.959,-24.067 m 51.681,19.661 c 0.008,5.021 0.132,7.055 0.404,6.599 0.47,-0.787 0.402,-11.677 -0.081,-12.967 -0.201,-0.538 -0.329,1.984 -0.323,6.368 M 76.952,211.05 c -0.143,0.232 0.112,0.518 0.567,0.637 0.455,0.119 0.827,0.45 0.827,0.737 0,0.696 0.579,1.017 1.318,0.734 0.689,-0.265 0.426,-1.347 -0.327,-1.347 -0.275,0 -0.721,-0.266 -0.991,-0.591 -0.577,-0.695 -1.035,-0.751 -1.394,-0.17 m 6.306,5.894 c -0.397,0.642 0.485,1.439 1.011,0.913 0.284,-0.284 0.235,-0.555 -0.162,-0.885 -0.423,-0.351 -0.644,-0.358 -0.849,-0.028 M 100,217.717 c 0,0.83 -0.573,1.059 -0.984,0.393 -0.287,-0.464 0.085,-1.181 0.614,-1.181 0.203,0 0.37,0.354 0.37,0.788 m -14.961,1.181 c 0,0.216 0.365,0.393 0.811,0.393 0.446,0 0.701,-0.177 0.567,-0.393 -0.134,-0.217 -0.498,-0.394 -0.81,-0.394 -0.312,0 -0.568,0.177 -0.568,0.394 m 18.038,0.492 c 0.1,0.53 -0.138,0.689 -1.031,0.689 -1.179,0 -2.269,-0.827 -1.761,-1.335 0.548,-0.548 2.658,-0.06 2.792,0.646 m 144.167,0.426 c 0,3.248 -4.075,12.165 -8.101,17.723 -4.875,6.733 -17.513,16.396 -21.446,16.398 -0.336,0 -0.779,0.158 -0.984,0.352 -1.715,1.613 -12.704,3.313 -19.308,2.986 -2.651,-0.131 -2.85,-0.101 -1.342,0.204 5.487,1.109 15.382,-0.207 21.106,-2.807 0.89,-0.404 1.823,-0.735 2.074,-0.735 0.664,0 4.279,-1.924 6.442,-3.427 1.026,-0.714 1.975,-1.297 2.108,-1.297 0.134,0 0.8,-0.442 1.481,-0.981 0.681,-0.54 1.651,-1.293 2.157,-1.673 3.706,-2.792 7.862,-7.902 11.77,-14.472 1.965,-3.304 2.476,-4.366 2.712,-5.637 0.148,-0.798 0.519,-1.835 0.825,-2.305 0.575,-0.884 1.205,-5.247 0.758,-5.247 -0.139,0 -0.252,0.413 -0.252,0.918 m -159.055,2.006 c 0,0.729 0.207,1.013 0.741,1.013 0.411,0 0.834,0.351 0.948,0.787 0.113,0.433 0.488,0.787 0.833,0.787 0.345,0 0.628,0.266 0.628,0.591 0,0.325 0.265,0.591 0.59,0.591 0.325,0 0.591,-0.327 0.591,-0.727 0,-0.867 -1.187,-2.029 -2.071,-2.029 -0.353,0 -0.686,-0.388 -0.756,-0.882 -0.187,-1.309 -1.504,-1.424 -1.504,-0.131 m 7.126,6.28 c -0.355,0.428 -0.264,0.591 0.438,0.774 0.991,0.259 1.721,-0.233 1.315,-0.889 -0.365,-0.591 -1.213,-0.536 -1.753,0.115 m 2.323,2.016 c 0,0.406 0.258,0.599 0.689,0.516 0.83,-0.16 0.777,-0.859 -0.078,-1.037 -0.357,-0.074 -0.611,0.143 -0.611,0.521 m 43.843,16.536 c -0.28,0.729 -0.836,0.729 -2.111,0 -0.971,-0.555 -0.962,-0.563 0.677,-0.577 1.318,-0.011 1.614,0.108 1.434,0.577 m -13.941,3.96 c -0.39,0.469 -0.293,0.567 0.561,0.567 1.107,0 1.396,-0.564 0.471,-0.919 -0.309,-0.118 -0.773,0.04 -1.032,0.352 m 5.4,2.798 c -0.536,0.535 -0.234,0.919 0.721,0.919 1.1,0 1.32,-0.575 0.362,-0.942 -0.771,-0.296 -0.764,-0.296 -1.083,0.023 m 2.887,1.903 c 0,0.375 0.377,0.591 1.032,0.591 0.873,0 0.957,-0.092 0.543,-0.591 -0.27,-0.325 -0.735,-0.591 -1.033,-0.591 -0.298,0 -0.542,0.266 -0.542,0.591 m 3.13,1.598 c -0.389,0.469 -0.292,0.567 0.562,0.567 1.106,0 1.395,-0.564 0.47,-0.918 -0.309,-0.119 -0.773,0.039 -1.032,0.351 m 3.202,1.085 c -0.744,0.745 -0.467,1.057 0.939,1.057 1.009,0 1.31,-0.144 1.154,-0.552 -0.281,-0.732 -1.557,-1.04 -2.093,-0.505 m 92.88,10.083 c -0.974,0.393 -2.923,0.837 -4.33,0.988 -1.408,0.151 -3.002,0.538 -3.544,0.862 -1.227,0.734 -0.172,0.607 5.118,-0.616 5.677,-1.313 7.577,-1.938 5.906,-1.944 -0.758,-0.003 -2.175,0.316 -3.15,0.71 m -17.322,2.837 c -1.408,0.188 -3.623,0.495 -4.922,0.684 l -2.362,0.342 2.904,0.052 c 1.597,0.028 4.52,-0.212 6.496,-0.534 1.976,-0.321 4.212,-0.647 4.97,-0.724 0.758,-0.077 0.049,-0.145 -1.575,-0.151 -1.624,-0.006 -4.104,0.143 -5.511,0.331 m -14.659,1.021 c 0.708,0.087 1.771,0.086 2.362,-0.004 0.592,-0.09 0.013,-0.162 -1.286,-0.159 -1.299,0.002 -1.783,0.075 -1.076,0.163 m 4.127,-0.014 c 0.379,0.099 0.999,0.099 1.378,0 0.379,-0.099 0.069,-0.18 -0.689,-0.18 -0.758,0 -1.068,0.081 -0.689,0.18 M 64.961,276.06 c -0.542,0.23 -1.809,0.56 -2.816,0.732 -1.853,0.317 -5.404,2.457 -6.741,4.063 -1.821,2.186 -3.133,4.46 -3.31,5.735 -0.107,0.771 -0.444,2.07 -0.75,2.886 -0.719,1.919 -0.719,7.32 10e-4,9.237 0.306,0.816 0.651,2.786 0.767,4.377 0.118,1.61 0.482,3.307 0.821,3.825 0.336,0.512 0.618,1.513 0.628,2.225 0.009,0.711 0.288,2.002 0.62,2.868 0.331,0.866 0.786,2.372 1.01,3.346 0.225,0.975 0.639,2.038 0.922,2.363 0.282,0.324 0.637,1.256 0.788,2.071 0.151,0.814 0.43,1.576 0.619,1.693 0.189,0.117 0.968,1.488 1.731,3.047 0.763,1.559 1.913,3.543 2.556,4.409 0.642,0.866 1.345,1.973 1.561,2.461 0.215,0.487 0.545,0.885 0.732,0.885 0.187,0 0.522,0.399 0.744,0.887 1.246,2.734 13.68,14.861 15.238,14.861 0.345,0 0.627,0.148 0.627,0.328 0,0.337 3.633,2.822 4.126,2.822 0.153,0 0.727,0.354 1.278,0.788 0.551,0.433 1.304,0.787 1.674,0.787 0.371,0 0.994,0.354 1.386,0.787 0.392,0.433 1.056,0.788 1.476,0.788 0.419,0 1.213,0.354 1.763,0.787 0.551,0.433 1.327,0.788 1.726,0.788 0.399,0 1.305,0.353 2.014,0.785 0.709,0.433 1.711,0.787 2.227,0.788 0.516,0.001 1.49,0.333 2.165,0.739 0.675,0.405 2.224,0.847 3.442,0.981 1.218,0.135 2.724,0.511 3.346,0.836 0.764,0.398 2.158,0.573 4.282,0.537 l 3.15,-0.052 -2.978,-0.286 c -1.638,-0.157 -3.321,-0.463 -3.74,-0.679 -0.42,-0.217 -1.737,-0.514 -2.928,-0.66 -1.191,-0.146 -3.093,-0.619 -4.226,-1.052 -1.133,-0.432 -3.082,-1.165 -4.331,-1.628 -3.143,-1.166 -9.912,-4.424 -11.672,-5.619 -0.803,-0.544 -1.568,-0.99 -1.7,-0.99 -0.132,0 -0.821,-0.443 -1.531,-0.984 -0.71,-0.541 -1.405,-0.984 -1.545,-0.984 -0.592,0 -6.147,-4.873 -8.992,-7.889 -9.408,-9.971 -14.784,-19.874 -17.52,-32.269 -0.215,-0.974 -0.565,-2.48 -0.778,-3.346 -3.851,-15.639 0.97,-26.004 12.717,-27.339 10.591,-1.204 18.021,5.588 19.14,17.496 0.456,4.853 1.141,7.557 2.79,11.024 1.169,2.459 1.284,2.662 3.344,5.931 2.555,4.052 9.215,10.255 12.926,12.037 0.866,0.416 1.841,0.907 2.166,1.091 3.238,1.831 9.074,3.454 17.125,4.764 3.72,0.605 162.049,0.01 166.588,-0.627 7.585,-1.063 14.244,-4.455 20.03,-10.204 2.755,-2.737 5.77,-6.714 4.859,-6.411 -0.261,0.087 -0.665,0.478 -0.897,0.869 -1.33,2.239 -7.859,8.889 -8.727,8.889 -0.283,0 -0.656,0.239 -0.829,0.531 -0.173,0.292 -0.79,0.779 -1.37,1.082 -0.58,0.304 -2.158,1.128 -3.507,1.831 -1.35,0.704 -2.774,1.28 -3.166,1.28 -0.392,0 -1.471,0.399 -2.398,0.886 l -1.685,0.886 -82.874,0.249 c -84.837,0.255 -91.82,0.164 -93.491,-1.223 -0.272,-0.226 -1.522,-0.601 -2.776,-0.833 -1.255,-0.232 -2.652,-0.656 -3.106,-0.942 -0.453,-0.286 -1.397,-0.64 -2.099,-0.786 -0.701,-0.147 -1.377,-0.432 -1.503,-0.636 -0.126,-0.203 -0.792,-0.637 -1.481,-0.964 -2.057,-0.977 -3.137,-1.654 -4.796,-3.007 -2.007,-1.636 -8.464,-8.171 -8.464,-8.565 0,-0.165 -0.355,-0.707 -0.788,-1.207 -0.433,-0.499 -0.787,-1.207 -0.787,-1.574 0,-0.366 -0.337,-0.971 -0.749,-1.343 -0.411,-0.373 -0.859,-1.268 -0.994,-1.99 -0.136,-0.722 -0.508,-1.53 -0.827,-1.794 -0.319,-0.265 -0.58,-0.866 -0.58,-1.335 0,-0.469 -0.276,-1.909 -0.613,-3.2 -0.337,-1.291 -0.773,-4.169 -0.97,-6.396 -0.222,-2.518 -0.619,-4.528 -1.049,-5.315 -2.51,-4.595 -5.704,-8.353 -7.475,-8.798 -0.473,-0.119 -0.952,-0.456 -1.064,-0.749 -0.113,-0.293 -0.878,-0.647 -1.702,-0.786 -0.823,-0.14 -2.055,-0.504 -2.738,-0.81 -1.441,-0.646 -4.622,-0.691 -6.042,-0.086 m 270.866,0.121 c -0.758,0.292 -2.175,0.547 -3.15,0.567 -0.974,0.019 -2.214,0.288 -2.756,0.596 -0.541,0.309 -1.56,0.829 -2.264,1.156 -0.703,0.326 -1.279,0.78 -1.279,1.007 0,0.228 -0.203,0.414 -0.45,0.414 -0.516,0 -3.083,2.395 -3.089,2.883 -0.002,0.178 -0.263,0.582 -0.579,0.898 -0.317,0.316 -0.682,1.234 -0.811,2.039 -0.13,0.805 -0.481,1.916 -0.78,2.469 -0.299,0.553 -0.667,2.856 -0.817,5.118 -0.15,2.262 -0.49,4.556 -0.756,5.097 -0.265,0.542 -0.596,2.123 -0.735,3.514 -0.139,1.391 -0.503,2.808 -0.809,3.149 -0.306,0.342 -0.68,1.285 -0.83,2.097 -0.151,0.812 -0.436,1.476 -0.634,1.476 -0.424,0 -1.212,1.912 -1.022,2.481 0.655,1.967 4.395,-9.742 5.015,-15.702 1.386,-13.332 5.823,-18.285 16.486,-18.406 12.076,-0.136 19.557,9.567 16.84,21.844 -0.352,1.591 -0.824,4.199 -1.05,5.794 -0.225,1.595 -0.582,3.222 -0.793,3.616 -0.481,0.898 -0.482,1.161 -0.008,1.161 0.459,0 1.193,-2.52 1.203,-4.134 0.005,-0.65 0.302,-1.978 0.661,-2.953 0.942,-2.555 0.998,-13.178 0.077,-14.587 -0.351,-0.537 -0.761,-1.538 -0.913,-2.227 -0.332,-1.513 -4.896,-6.269 -6.765,-7.05 -0.702,-0.293 -1.382,-0.703 -1.51,-0.91 -0.128,-0.208 -1.067,-0.502 -2.087,-0.655 -1.02,-0.153 -2.428,-0.518 -3.128,-0.81 -1.498,-0.626 -1.49,-0.626 -3.267,0.058 m 14.271,35.994 c -0.487,1.257 -0.891,2.53 -0.899,2.831 -0.007,0.3 -0.355,1.254 -0.774,2.12 -0.418,0.866 -0.766,1.775 -0.774,2.019 -0.015,0.488 -1.808,4.715 -2.4,5.658 -0.204,0.325 -0.546,0.996 -0.759,1.49 -3.425,7.936 -18.198,23.14 -25.751,26.501 -0.455,0.203 -1.625,0.821 -2.599,1.375 -2.748,1.56 -7.133,3.152 -13.78,5.003 l -4.527,1.261 -40.552,0.216 -40.551,0.216 41.536,-0.021 41.535,-0.02 2.082,-0.885 c 1.144,-0.486 2.562,-0.89 3.149,-0.897 0.588,-0.008 1.777,-0.356 2.643,-0.774 0.866,-0.419 1.894,-0.767 2.284,-0.774 0.391,-0.008 1.365,-0.355 2.166,-0.772 0.8,-0.418 2.607,-1.313 4.015,-1.989 1.407,-0.677 3.09,-1.57 3.74,-1.986 0.649,-0.416 1.845,-1.119 2.657,-1.563 0.812,-0.443 1.477,-0.938 1.477,-1.099 0,-0.16 0.329,-0.467 0.732,-0.681 2.802,-1.486 9.053,-7.21 12.341,-11.301 0.713,-0.887 1.589,-1.921 1.947,-2.299 0.357,-0.378 0.768,-1.059 0.912,-1.513 0.145,-0.455 0.398,-0.826 0.563,-0.826 0.366,0 2.796,-3.691 2.796,-4.246 0,-0.217 0.256,-0.493 0.569,-0.613 0.313,-0.12 0.685,-0.835 0.826,-1.59 0.142,-0.754 0.489,-1.46 0.772,-1.568 0.283,-0.109 0.642,-0.776 0.797,-1.482 0.155,-0.706 0.51,-1.512 0.788,-1.79 0.279,-0.279 0.626,-1.209 0.77,-2.067 0.145,-0.858 0.511,-1.765 0.813,-2.016 0.303,-0.25 0.661,-1.102 0.797,-1.892 0.135,-0.791 0.596,-2.185 1.023,-3.098 0.428,-0.913 0.72,-2.01 0.65,-2.436 -0.084,-0.51 -0.432,0.008 -1.014,1.508 m -180.483,48.356 c 6.999,0.061 18.338,0.061 25.197,0 6.859,-0.06 1.133,-0.109 -12.725,-0.109 -13.859,0 -19.471,0.049 -12.472,0.109 m -44.517,0.394 c 5.684,0.061 14.986,0.061 20.67,0 5.684,-0.062 1.033,-0.112 -10.335,-0.112 -11.368,0 -16.019,0.05 -10.335,0.112 m 84.653,-0.01 c 0.708,0.088 1.771,0.086 2.362,-0.004 0.592,-0.09 0.013,-0.161 -1.286,-0.159 -1.299,0.002 -1.783,0.076 -1.076,0.163"
       stroke="none"
       fill="#c2cfd4"
       fill-rule="evenodd" />
  </g>
</svg>
